<svg id="Layer_1" data-name="Layer 1" xmlns="http://www.w3.org/2000/svg" viewBox="0 0 130.08 148.92">
  <defs>
    <style>
      .cls-1 {
        fill: #fff;
      }

      .cls-1, .cls-2, .cls-3, .cls-4, .cls-5, .cls-6, .cls-7, .cls-8 {
        fill-rule: evenodd;
      }

      .cls-2 {
        fill: #b4e866;
      }

      .cls-3 {
        fill: #0089d2;
      }

      .cls-4 {
        fill: #f72717;
      }

      .cls-5 {
        fill: #00b9e4;
      }

      .cls-6 {
        fill: #86d3ea;
      }

      .cls-7 {
        fill: #619700;
      }

      .cls-8 {
        fill: #ff6303;
      }
    </style>
  </defs>
  <title>Strauss_favicon</title>
  <path class="cls-1" d="M65.84,3.51l-.68.34C49.19,17,41.52,35.65,40.8,49.17c-1.86-3.88-5.93-11.31-8.19-11.07s-3.75,3.61-4.11,12.32c-3-5.51-5.74-12.6-8.22-19.45-.79-2.15-2.58-6-4-.67-.79,2.89-2.17,12-2.08,14.68C14.69,61,19.23,68.7,21,70.93c-1.68-.5-5.93-.25-4,4.95C19.66,83,23.83,87.23,31.29,90,26,90.08,13,88.71,2.88,86c-4.09-1.09-3.79,2,.67,8.28,6.84,9.61,24,13.34,31,12.7,9.47-.85,13.81-3.49,17.14-5.86-2.61,6.41-13.32,12.9-17.26,14.3-5.62,2-2.46,3.87,1.64,4.37,3.65.44,12.72,0,19.41-6.39.73,3.95-4.26,20.88-6.38,25.52-1.31,2.83.67,6.15,6.69,1.29,4.26-3.46,11-8.83,15.59-18.56,1.16,3.81,2.43,9,3.14,12.32.54,2.52,2.6,2.67,4.66-1.23,1.11-2.12,2.64-8.1,3-12.37,3.86,5.58,12,20.75,15,26.72.53,1,2.86,3.91,4.66-.91,3.63-9.73,2.44-24.14.77-31.5a82.58,82.58,0,0,1,9.84,13.55c1.89,3.64,4.6-.5,4.64-6.51a77,77,0,0,1,7.94,4.31c1.5,1,2.4.6,2.55-1.15a18,18,0,0,0-1.32-5.54c-3.4-8.44-10.2-9.45-15.74-9.08.67-5.27-.94-16.38-11.87-24.53,5.54.09,17.55,2.22,21,3.25s5.11-.35,4.55-2.81C123.1,82,113.91,74,107.34,70a152.36,152.36,0,0,1,18.25.94c2.79.37,4,.5,4.39-.5.49-1.17-.55-3.82-7.34-8.24-8.44-5.5-18.53-7.33-23.2-7.85-3-.34-4.43-.34-6.27-.53,1.62-1.15,9.09-1.71,14.57-1.49,2.2.08,2.72-.72,1.61-2-2.7-3.07-9-4.43-11.9-4.25.43-.86,4.09-3,5.61-4.32s4.55-4.5-6.16-5.36C86.67,35.59,71,40.36,65.73,46.37c-.25-10.69,6.69-37.32,8.23-42,1.8-5.48-2-5.81-8.16-.85"/>
  <path class="cls-2" d="M66.1,8.52C58,15,48.08,26,44.24,41.42c-5.4,21.65,12.85,42.66,13,42.7-1.48-22,6.36-56.93,11.29-73.41C69.06,9,68.6,8.28,68.28,8c-.53-.38-1.35-.2-2.18.48"/>
  <path class="cls-2" d="M93.25,42.75c-15.39,10.8-29,23-36,41.37-3.55-6-2.7-14.22-.65-20.62,5.34-16.57,20.94-22.89,36.22-22.75,1.45,0,2,.91.44,2"/>
  <path class="cls-3" d="M57.25,84.12c15.19-4.46,42.66-4.05,58.57,0,2.75.68,3.12-1.47,1.84-3C110.05,71.78,101.27,66,88.92,65c-14.71-1.16-24.24,8.25-31.67,19.12"/>
  <path class="cls-4" d="M43.52,113.43c5-4,9.53-9,12.12-14.94,3.53,11.71-5.46,15.68-11.33,16.37-1.09.12-1.56-.8-.79-1.43"/>
  <path class="cls-4" d="M57.25,84.12c4.29,15.68,2,34.4-2.28,50.33-.61,2.3.81,3.09,2.65,1.82,8.1-5.58,17-18,16.33-29.7C73.24,94,68,86.88,57.25,84.13"/>
  <path class="cls-3" d="M106.35,113.59,114.51,124c.34.42.86.51.91-.24.2-3-.18-10.31-9.07-10.17"/>
  <path class="cls-5" d="M122.08,122.32l-15.73-8.73s10.36-5.61,16.5,7.69c.47,1-.27,1.3-.77,1"/>
  <path class="cls-6" d="M57.25,84.12l41,50.39c1.89,2.28,4.16,2,4.23-.87.34-12.95-3.87-47.53-45.22-49.52"/>
  <path class="cls-3" d="M57.25,84.12,76.8,122.59c1.27,2.49,2.82,2.3,3.52-.61C82.73,112,85,89.5,57.25,84.14"/>
  <path class="cls-7" d="M104.62,51.49c-5.18-.34-10.26.37-14.44,3.16,3-9.27,11.52-7,14.79-4.5,1,.71.69,1.41-.34,1.35"/>
  <path class="cls-7" d="M119,67.36c-22.68,2.11-34-.74-61.78,16.77C70.89,47.51,103.57,53.69,119,64c2.11,1.41,1.62,3.22.05,3.38"/>
  <path class="cls-5" d="M104.19,105.3C93.65,96.94,71.76,85.85,57.25,84.12a34.3,34.3,0,0,1,14.57-5.64c16.09-2.55,30.45,8.51,34.86,25.45.59,2.26-.8,2.7-2.48,1.38"/>
  <path class="cls-2" d="M21.21,40.54c8.52,17.83,19,33.79,36,43.58C51,87.19,42.67,85.44,36.71,82.43,21.28,74.67,17.13,57.14,19.22,40.78c.2-1.57,1.14-2.05,2-.24"/>
  <path class="cls-4" d="M57.25,84.12c-14.28,9.38-32.57,9-46.8,6.08-2-.42-2.57,1.35-1.27,2.7C17.09,101.26,27,106.28,38,105.3c10.51-.91,19.85-9.3,19.28-21.19"/>
  <path class="cls-7" d="M57.25,84.12,34.86,46.85c-1.44-2.4-3-2.1-3.48.86-1.69,10.12-2.23,33,25.86,36.41"/>
  <path class="cls-8" d="M59,42.29C44.08,54.48,44.21,70.06,57.24,84.14c-.79-11.68,1.07-27,3.71-41.27.29-1.56-.21-2-1.94-.56"/>
  <path class="cls-8" d="M57.25,84.12c-12.1,1.55-24.06-3.24-34.42-8.93-1.71-.94-2.52.15-2,1.5C27,91.48,47.53,100.86,57.24,84.12"/>
</svg>
