<svg xmlns="http://www.w3.org/2000/svg" viewBox="0 0 320.8 106.69">
  <defs>
    <style>
      .cls-1 {
        fill: #3c1f7b;
      }
    </style>
  </defs>
  <title>2021</title>
  <g id="paper">
    <g>
      <path class="cls-1" d="M34.78,23.77c-5.87,0-10.12,2.79-10.12,10H2.35C2.05,11.59,17,.73,35.22.29c29.5-.73,42.41,28.47,27.15,52.1L41.68,81.16H72.2v23.48H0v-4l38.6-56.5C43.73,37.28,47.7,23.77,34.78,23.77Zm.15-12.47c-9.39-.15-17.32,3.82-20.69,13.06h1.61c3.23-8.36,10.71-12,19.08-11.74,21.72.44,26.12,19.23,15.26,35.08L18.78,93.63H61.05V92.16H21.28L51.51,48.43C63.1,31.7,57.82,11.59,34.93,11.3Z"/>
      <path class="cls-1" d="M165,35.37V71.32c0,22.46-17.31,35.37-38.59,35.37-20.84,0-38.31-12.91-38.31-35.37V35.37C88.05,12.91,105.52,0,126.36,0,147.64,0,165,12.91,165,35.37ZM153.36,70.74V35.81c0-15.85-12.18-24.8-27-24.8C112,11,99.65,20,99.65,35.81V70.74c0,15.7,12.32,24.94,26.71,24.94C141.18,95.68,153.36,86.44,153.36,70.74ZM151.6,35.81V70.74c0,15-11.16,23.62-25.24,23.62-13.65,0-25.1-8.65-25.1-23.62V35.81c0-15.12,11.45-23.48,25.1-23.48C140.44,12.33,151.6,20.69,151.6,35.81ZM140.15,70.74V35.81c0-8.07-6-12.33-13.79-12.33-7.49,0-13.36,4.26-13.36,12.33V70.74c0,8.36,5.87,12.62,13.36,12.62C134.13,83.36,140.15,79.1,140.15,70.74Z"/>
      <path class="cls-1" d="M215,23.77c-5.87,0-10.13,2.79-10.13,10H182.56c-.29-22.16,14.68-33,32.88-33.46,29.49-.73,42.41,28.47,27.15,52.1l-20.7,28.77h30.53v23.48h-72.2v-4l38.59-56.5C224,37.28,227.91,23.77,215,23.77Zm.14-12.47c-9.39-.15-17.31,3.82-20.69,13.06h1.61c3.23-8.36,10.72-12,19.08-11.74,21.72.44,26.13,19.23,15.27,35.08L199,93.63h42.27V92.16H201.49l30.24-43.73C243.32,31.7,238,11.59,215.14,11.3Z"/>
      <path class="cls-1" d="M265,24.07V1.91h39.47V82.33H320.8v22.31h-58V82.33H279V24.07Zm27.29-12.18H274.72v1.17H291V93.48H272.67v1.18H311V93.48H292.33Z"/>
    </g>
  </g>
</svg>
