<svg xmlns="http://www.w3.org/2000/svg" width="549.09" height="733" viewBox="0 0 549.09 733">
  <defs>
    <style>
      .cls-1 {
        fill: #241157;
        fill-opacity: 0.26;
        fill-rule: evenodd;
      }
    </style>
  </defs>
  <path id="Фигура_2" data-name="Фигура 2" class="cls-1" d="M1606.56,75.168a63.581,63.581,0,1,0-63.65-63.577,63.626,63.626,0,0,0,63.65,63.577m-210.89,0a63.581,63.581,0,1,0-63.66-63.577,63.617,63.617,0,0,0,63.66,63.577m421.78,0a63.581,63.581,0,1,0-63.65-63.577,63.619,63.619,0,0,0,63.65,63.577M1552.3,577.654q-3.615,44.391-49.02,44.783h-0.8q-49.035,0-49.02-52.71V167.015H1339.74V569.727q0,163.285,163.14,163.28,66.69,0,106.48-27.343,39.375,27.339,106.08,27.343,163.545,0,163.54-163.28V167.015H1765.27V569.727q0,52.313-49.42,52.71h-0.81q-45,0-48.62-44.783V167.015H1552.3V577.654Z" transform="translate(-1332)"/>
</svg>
