<svg id="Layer_55" data-name="Layer 55" xmlns="http://www.w3.org/2000/svg" xmlns:xlink="http://www.w3.org/1999/xlink" viewBox="0 0 283.94 283.94">
  <defs>
    <style>
      .cls-1 {
        fill: url(#radial-gradient);
      }

      .cls-2 {
        fill: #fff;
      }

      .cls-3 {
        fill: url(#radial-gradient-2);
      }

      .cls-4 {
        fill: url(#radial-gradient-3);
      }

      .cls-5 {
        fill: url(#radial-gradient-4);
      }

      .cls-6 {
        fill: url(#radial-gradient-5);
      }

      .cls-7 {
        fill: url(#radial-gradient-6);
      }

      .cls-8 {
        fill: url(#radial-gradient-7);
      }

      .cls-9 {
        fill: url(#radial-gradient-9);
      }

      .cls-10 {
        fill: url(#radial-gradient-10);
      }

      .cls-11 {
        fill: url(#radial-gradient-11);
      }

      .cls-12 {
        fill: url(#radial-gradient-13);
      }

      .cls-13 {
        fill: url(#radial-gradient-14);
      }

      .cls-14 {
        fill: url(#radial-gradient-15);
      }

      .cls-15 {
        fill: url(#radial-gradient-16);
      }

      .cls-16 {
        fill: url(#radial-gradient-17);
      }

      .cls-17 {
        fill: url(#radial-gradient-18);
      }

      .cls-18 {
        fill: url(#radial-gradient-19);
      }

      .cls-19 {
        fill: url(#radial-gradient-21);
      }

      .cls-20 {
        fill: url(#radial-gradient-22);
      }

      .cls-21 {
        fill: url(#radial-gradient-23);
      }

      .cls-22 {
        fill: url(#radial-gradient-24);
      }

      .cls-23 {
        fill: url(#radial-gradient-25);
      }

      .cls-24 {
        fill: url(#radial-gradient-26);
      }

      .cls-25 {
        fill: url(#radial-gradient-27);
      }

      .cls-26 {
        fill: url(#radial-gradient-29);
      }

      .cls-27 {
        fill: url(#radial-gradient-30);
      }

      .cls-28 {
        fill: url(#radial-gradient-31);
      }

      .cls-29 {
        fill: url(#radial-gradient-32);
      }

      .cls-30 {
        fill: url(#radial-gradient-33);
      }

      .cls-31 {
        fill: url(#radial-gradient-34);
      }

      .cls-32 {
        fill: url(#radial-gradient-35);
      }

      .cls-33 {
        fill: url(#radial-gradient-37);
      }

      .cls-34 {
        fill: url(#radial-gradient-38);
      }

      .cls-35 {
        fill: url(#radial-gradient-39);
      }

      .cls-36 {
        fill: url(#radial-gradient-41);
      }

      .cls-37 {
        fill: url(#radial-gradient-42);
      }

      .cls-38 {
        fill: url(#radial-gradient-43);
      }

      .cls-39 {
        fill: url(#radial-gradient-45);
      }

      .cls-40 {
        fill: url(#radial-gradient-46);
      }

      .cls-41 {
        fill: url(#radial-gradient-47);
      }
    </style>
    <radialGradient id="radial-gradient" cx="141.97" cy="71.21" r="53.82" gradientUnits="userSpaceOnUse">
      <stop offset="0.01" stop-color="#dad0fd"/>
      <stop offset="0.26" stop-color="#d9cffd"/>
      <stop offset="0.47" stop-color="#e0d7fd"/>
      <stop offset="0.8" stop-color="#f2effe"/>
      <stop offset="1" stop-color="#fff"/>
    </radialGradient>
    <radialGradient id="radial-gradient-2" cx="141.97" cy="71.21" r="52.02" xlink:href="#radial-gradient"/>
    <radialGradient id="radial-gradient-3" cx="141.97" cy="71.21" r="50.75" xlink:href="#radial-gradient"/>
    <radialGradient id="radial-gradient-4" cx="141.97" cy="71.21" r="50.11" xlink:href="#radial-gradient"/>
    <radialGradient id="radial-gradient-5" cx="106.59" cy="80.69" r="50.69" xlink:href="#radial-gradient"/>
    <radialGradient id="radial-gradient-6" cx="106.59" cy="80.69" r="50.05" xlink:href="#radial-gradient"/>
    <radialGradient id="radial-gradient-7" cx="106.59" cy="80.69" r="50.04" xlink:href="#radial-gradient"/>
    <radialGradient id="radial-gradient-9" cx="80.69" cy="106.59" r="50.69" xlink:href="#radial-gradient"/>
    <radialGradient id="radial-gradient-10" cx="80.69" cy="106.59" r="50.05" xlink:href="#radial-gradient"/>
    <radialGradient id="radial-gradient-11" cx="80.69" cy="106.59" r="50.04" xlink:href="#radial-gradient"/>
    <radialGradient id="radial-gradient-13" cx="71.21" cy="141.97" r="53.82" xlink:href="#radial-gradient"/>
    <radialGradient id="radial-gradient-14" cx="71.21" cy="141.97" r="52.02" xlink:href="#radial-gradient"/>
    <radialGradient id="radial-gradient-15" cx="71.21" cy="141.97" r="50.75" xlink:href="#radial-gradient"/>
    <radialGradient id="radial-gradient-16" cx="71.21" cy="141.97" r="50.11" xlink:href="#radial-gradient"/>
    <radialGradient id="radial-gradient-17" cx="106.59" cy="203.25" r="50.69" xlink:href="#radial-gradient"/>
    <radialGradient id="radial-gradient-18" cx="106.59" cy="203.25" r="50.05" xlink:href="#radial-gradient"/>
    <radialGradient id="radial-gradient-19" cx="106.59" cy="203.25" r="50.04" xlink:href="#radial-gradient"/>
    <radialGradient id="radial-gradient-21" cx="141.97" cy="212.73" r="53.82" xlink:href="#radial-gradient"/>
    <radialGradient id="radial-gradient-22" cx="141.97" cy="212.73" r="52.02" xlink:href="#radial-gradient"/>
    <radialGradient id="radial-gradient-23" cx="141.97" cy="212.73" r="50.75" xlink:href="#radial-gradient"/>
    <radialGradient id="radial-gradient-24" cx="141.97" cy="212.73" r="50.11" xlink:href="#radial-gradient"/>
    <radialGradient id="radial-gradient-25" cx="203.25" cy="177.35" r="50.69" xlink:href="#radial-gradient"/>
    <radialGradient id="radial-gradient-26" cx="203.25" cy="177.35" r="50.05" xlink:href="#radial-gradient"/>
    <radialGradient id="radial-gradient-27" cx="203.25" cy="177.35" r="50.04" xlink:href="#radial-gradient"/>
    <radialGradient id="radial-gradient-29" cx="212.73" cy="141.97" r="53.82" xlink:href="#radial-gradient"/>
    <radialGradient id="radial-gradient-30" cx="212.73" cy="141.97" r="52.02" xlink:href="#radial-gradient"/>
    <radialGradient id="radial-gradient-31" cx="212.73" cy="141.97" r="50.75" xlink:href="#radial-gradient"/>
    <radialGradient id="radial-gradient-32" cx="212.73" cy="141.97" r="50.11" xlink:href="#radial-gradient"/>
    <radialGradient id="radial-gradient-33" cx="203.25" cy="106.59" r="50.69" xlink:href="#radial-gradient"/>
    <radialGradient id="radial-gradient-34" cx="203.25" cy="106.59" r="50.05" xlink:href="#radial-gradient"/>
    <radialGradient id="radial-gradient-35" cx="203.25" cy="106.59" r="50.04" xlink:href="#radial-gradient"/>
    <radialGradient id="radial-gradient-37" cx="177.35" cy="80.69" r="50.69" xlink:href="#radial-gradient"/>
    <radialGradient id="radial-gradient-38" cx="177.35" cy="80.69" r="50.05" xlink:href="#radial-gradient"/>
    <radialGradient id="radial-gradient-39" cx="177.35" cy="80.69" r="50.04" xlink:href="#radial-gradient"/>
    <radialGradient id="radial-gradient-41" cx="80.69" cy="177.35" r="50.69" xlink:href="#radial-gradient"/>
    <radialGradient id="radial-gradient-42" cx="80.69" cy="177.35" r="50.05" xlink:href="#radial-gradient"/>
    <radialGradient id="radial-gradient-43" cx="80.69" cy="177.35" r="50.04" xlink:href="#radial-gradient"/>
    <radialGradient id="radial-gradient-45" cx="177.35" cy="203.25" r="50.69" xlink:href="#radial-gradient"/>
    <radialGradient id="radial-gradient-46" cx="177.35" cy="203.25" r="50.05" xlink:href="#radial-gradient"/>
    <radialGradient id="radial-gradient-47" cx="177.35" cy="203.25" r="50.04" xlink:href="#radial-gradient"/>
  </defs>
  <title>flower</title>
  <g>
    <g>
      <g>
        <path class="cls-1" d="M170,71.21c0,39.08-28,70.76-28,70.76s-28-31.68-28-70.76S142,.45,142,.45,170,32.13,170,71.21Z"/>
        <path class="cls-2" d="M142,142.42a.45.45,0,0,1-.33-.15,126,126,0,0,1-14.07-20.81c-6.42-11.73-14.06-30-14.06-50.25S121.15,32.69,127.57,21A126,126,0,0,1,141.64.15a.45.45,0,0,1,.66,0A126,126,0,0,1,156.37,21c6.42,11.73,14.06,30,14.06,50.25s-7.64,38.52-14.06,50.25a126,126,0,0,1-14.07,20.81A.45.45,0,0,1,142,142.42ZM142,1.13a127.78,127.78,0,0,0-13.63,20.28C122,33,114.4,51.12,114.4,71.21S122,109.38,128.34,121A128.84,128.84,0,0,0,142,141.29,128.84,128.84,0,0,0,155.6,121c6.36-11.63,13.94-29.72,13.94-49.8S162,33,155.6,21.41A127.78,127.78,0,0,0,142,1.13Z"/>
      </g>
      <g>
        <path class="cls-3" d="M162.09,71.21C162.09,110.29,142,142,142,142s-20.12-31.68-20.12-70.76S142,.45,142,.45,162.09,32.13,162.09,71.21Z"/>
        <path class="cls-2" d="M142,142.42a.47.47,0,0,1-.38-.21,134.52,134.52,0,0,1-10.09-20.8c-4.61-11.72-10.09-29.94-10.09-50.2S126.89,32.73,131.5,21A134.52,134.52,0,0,1,141.59.21a.47.47,0,0,1,.76,0A134.52,134.52,0,0,1,152.44,21c4.61,11.72,10.09,29.94,10.09,50.2s-5.48,38.48-10.09,50.2a134.52,134.52,0,0,1-10.09,20.8A.47.47,0,0,1,142,142.42ZM142,1.3a139.28,139.28,0,0,0-9.65,20.06c-4.57,11.64-10,29.74-10,49.85s5.45,38.21,10,49.85A139.87,139.87,0,0,0,142,141.12a139.87,139.87,0,0,0,9.65-20.06c4.57-11.64,10-29.74,10-49.85s-5.45-38.21-10-49.85A139.28,139.28,0,0,0,142,1.3Z"/>
      </g>
      <g>
        <path class="cls-4" d="M153.93,71.21A222.52,222.52,0,0,1,142,142,222.69,222.69,0,0,1,130,71.21,222.69,222.69,0,0,1,142,.45,222.52,222.52,0,0,1,153.93,71.21Z"/>
        <path class="cls-2" d="M142,142.42a.46.46,0,0,1-.42-.29,225.23,225.23,0,0,1-12-70.92,225.15,225.15,0,0,1,12-70.92.45.45,0,0,1,.84,0,225.15,225.15,0,0,1,12,70.92,225.23,225.23,0,0,1-12,70.92A.46.46,0,0,1,142,142.42ZM142,1.77a226.32,226.32,0,0,0-11.51,69.44A226.32,226.32,0,0,0,142,140.65a226.32,226.32,0,0,0,11.51-69.44A226.32,226.32,0,0,0,142,1.77Z"/>
      </g>
      <g>
        <path class="cls-5" d="M145.75,71.21A666.46,666.46,0,0,1,142,142,664.19,664.19,0,0,1,142,.45,666.46,666.46,0,0,1,145.75,71.21Z"/>
        <path class="cls-2" d="M142,142.42a.44.44,0,0,1-.44-.4,671.09,671.09,0,0,1-3.79-70.81A671.65,671.65,0,0,1,141.53.39a.44.44,0,0,1,.88,0,671.65,671.65,0,0,1,3.79,70.82A671.09,671.09,0,0,1,142.41,142,.44.44,0,0,1,142,142.42ZM142,4.61c-1,9.82-3.33,36.08-3.33,66.6S141,128,142,137.81c1-9.82,3.34-36.08,3.34-66.6S143,14.43,142,4.61Z"/>
      </g>
    </g>
    <g>
      <g>
        <path class="cls-6" d="M130.85,66.68C150.39,100.52,142,142,142,142s-40.1-13.43-59.64-47.27S71.21,19.41,71.21,19.41,111.31,32.83,130.85,66.68Z"/>
        <path class="cls-2" d="M142,142.42a.32.32,0,0,1-.14,0,125.61,125.61,0,0,1-22.59-11c-11.42-7-27.16-18.92-37.3-36.49S69.3,57.74,69,44.37a126,126,0,0,1,1.78-25A.44.44,0,0,1,71,19a.48.48,0,0,1,.37,0A125.88,125.88,0,0,1,93.93,30c11.43,7,27.17,18.92,37.31,36.49s12.64,37.18,12.95,50.55a126,126,0,0,1-1.78,25,.51.51,0,0,1-.22.3A.43.43,0,0,1,142,142.42ZM71.55,20a127.79,127.79,0,0,0-1.67,24.37c.31,13.26,2.79,32.71,12.83,50.1s25.65,29.27,37,36.16a128.12,128.12,0,0,0,21.94,10.75A128.21,128.21,0,0,0,143.29,117c-.3-13.25-2.78-32.7-12.82-50.1s-25.67-29.27-37-36.17A127.91,127.91,0,0,0,71.55,20Z"/>
      </g>
      <g>
        <path class="cls-7" d="M124,70.63C143.55,104.47,142,142,142,142s-33.26-17.38-52.8-51.22-18-71.34-18-71.34S104.47,36.78,124,70.63Z"/>
        <path class="cls-2" d="M142,142.42a.54.54,0,0,1-.21,0,136.83,136.83,0,0,1-19.14-13c-9.85-7.85-23.71-20.89-33.84-38.43S74.29,54.9,72.42,42.45a135.75,135.75,0,0,1-1.66-23.06A.46.46,0,0,1,71,19a.44.44,0,0,1,.43,0A133.73,133.73,0,0,1,90.56,32c9.85,7.85,23.71,20.88,33.84,38.43s14.49,36.06,16.36,48.52A135.75,135.75,0,0,1,142.42,142a.46.46,0,0,1-.23.37A.43.43,0,0,1,142,142.42ZM71.63,20.15A140.33,140.33,0,0,0,73.3,42.34c1.87,12.37,6.2,30.77,16.25,48.18s23.83,30.37,33.61,38.17a140.2,140.2,0,0,0,18.38,12.54A139,139,0,0,0,139.87,119c-1.86-12.37-6.19-30.77-16.24-48.19S99.8,40.49,90,32.69A138.94,138.94,0,0,0,71.63,20.15Z"/>
      </g>
      <g>
        <path class="cls-8" d="M116.94,74.71A222.72,222.72,0,0,1,142,142a222.69,222.69,0,0,1-45.73-55.3,222.72,222.72,0,0,1-25-67.26A222.69,222.69,0,0,1,116.94,74.71Z"/>
        <path class="cls-2" d="M142,142.42a.48.48,0,0,1-.28-.1A225.36,225.36,0,0,1,95.85,86.89,224.91,224.91,0,0,1,70.77,19.48.44.44,0,0,1,71,19a.45.45,0,0,1,.51,0,225.36,225.36,0,0,1,45.84,55.43h0a225.13,225.13,0,0,1,25.08,67.41.46.46,0,0,1-.22.46A.43.43,0,0,1,142,142.42ZM71.87,20.55A226.34,226.34,0,0,0,96.62,86.44a226.17,226.17,0,0,0,44.69,54.38,226.44,226.44,0,0,0-24.75-65.89A226.39,226.39,0,0,0,71.87,20.55Z"/>
      </g>
      <g>
        <path class="cls-8" d="M109.86,78.8A666.46,666.46,0,0,1,142,142a669,669,0,0,1-38.66-59.39,666.18,666.18,0,0,1-32.1-63.17A665.92,665.92,0,0,1,109.86,78.8Z"/>
        <path class="cls-2" d="M142,142.42a.47.47,0,0,1-.36-.18A675.5,675.5,0,0,1,102.93,82.8,670.4,670.4,0,0,1,70.8,19.58a.44.44,0,0,1,.76-.44,668.56,668.56,0,0,1,38.69,59.43,674.11,674.11,0,0,1,32.13,63.23.44.44,0,0,1-.19.56A.43.43,0,0,1,142,142.42ZM73.29,23c4,9,15.15,32.91,30.41,59.35s30.42,48,36.19,56c-4-9-15.15-32.91-30.41-59.34S79.06,31,73.29,23Z"/>
      </g>
    </g>
    <g>
      <g>
        <path class="cls-9" d="M94.7,82.33C128.54,101.87,142,142,142,142s-41.45,8.42-75.29-11.12S19.41,71.21,19.41,71.21,60.85,62.78,94.7,82.33Z"/>
        <path class="cls-2" d="M120.15,144.22l-3.14,0c-13.37-.31-33-2.81-50.55-12.95S36.92,105.36,30,93.93A125.88,125.88,0,0,1,19,71.35.45.45,0,0,1,19,71a.43.43,0,0,1,.3-.22,126,126,0,0,1,25-1.78c13.37.31,33,2.81,50.55,13s29.54,25.88,36.49,37.3a125.61,125.61,0,0,1,11,22.59.45.45,0,0,1,0,.36.51.51,0,0,1-.3.22A123,123,0,0,1,120.15,144.22ZM20,71.55A127.72,127.72,0,0,0,30.74,93.49c6.9,11.33,18.77,26.93,36.16,37S103.77,143,117,143.29a127.88,127.88,0,0,0,24.35-1.66,129,129,0,0,0-10.75-21.94c-6.89-11.33-18.76-26.94-36.16-37S57.61,70.19,44.35,69.88A128.32,128.32,0,0,0,20,71.55Z"/>
      </g>
      <g>
        <path class="cls-10" d="M90.75,89.17C124.59,108.71,142,142,142,142s-37.5,1.58-71.34-18-51.22-52.8-51.22-52.8S56.9,69.63,90.75,89.17Z"/>
        <path class="cls-2" d="M140,142.44a145.47,145.47,0,0,1-21-1.68c-12.45-1.87-31-6.23-48.52-16.36S39.83,100.41,32,90.56A133.73,133.73,0,0,1,19,71.41.42.42,0,0,1,19,71a.44.44,0,0,1,.37-.23,135.75,135.75,0,0,1,23.06,1.66c12.45,1.87,31,6.23,48.52,16.36h0c17.54,10.13,30.58,24,38.43,33.84a136.83,136.83,0,0,1,13,19.14.47.47,0,0,1,0,.43.46.46,0,0,1-.37.23S141.25,142.44,140,142.44ZM20.15,71.64A139.82,139.82,0,0,0,32.69,90c7.8,9.78,20.75,23.55,38.16,33.61S106.67,138,119,139.88a139.73,139.73,0,0,0,22.19,1.66,140.2,140.2,0,0,0-12.54-18.38c-7.8-9.78-20.75-23.55-38.16-33.61S54.71,75.17,42.34,73.3A138.51,138.51,0,0,0,20.15,71.64Z"/>
      </g>
      <g>
        <path class="cls-11" d="M86.67,96.24A222.69,222.69,0,0,1,142,142a222.72,222.72,0,0,1-67.26-25,222.69,222.69,0,0,1-55.3-45.73A222.72,222.72,0,0,1,86.67,96.24Z"/>
        <path class="cls-2" d="M142,142.42h-.07a224.81,224.81,0,0,1-67.41-25.08A225.36,225.36,0,0,1,19.06,71.49a.45.45,0,0,1,.42-.72A224.91,224.91,0,0,1,86.89,95.85a225.36,225.36,0,0,1,55.43,45.84.45.45,0,0,1-.35.73ZM20.55,71.87a226.39,226.39,0,0,0,54.38,44.69,226.44,226.44,0,0,0,65.89,24.75A226.17,226.17,0,0,0,86.44,96.62,226.34,226.34,0,0,0,20.55,71.87Z"/>
      </g>
      <g>
        <path class="cls-11" d="M82.58,103.31A669,669,0,0,1,142,142,666.46,666.46,0,0,1,78.8,109.86,665.92,665.92,0,0,1,19.41,71.21,666.18,666.18,0,0,1,82.58,103.31Z"/>
        <path class="cls-2" d="M142,142.42a.58.58,0,0,1-.18,0,675.29,675.29,0,0,1-63.21-32.13A667.9,667.9,0,0,1,19.14,71.56a.44.44,0,0,1,.44-.76A670.4,670.4,0,0,1,82.8,102.93a675.5,675.5,0,0,1,59.44,38.68.45.45,0,0,1,.12.58A.45.45,0,0,1,142,142.42ZM23,73.29c8,5.77,29.58,20.93,56,36.19s50.34,26.36,59.34,30.41c-8-5.77-29.57-20.93-56-36.19S32,77.33,23,73.29Z"/>
      </g>
    </g>
    <g>
      <g>
        <path class="cls-12" d="M71.21,114c39.08,0,70.76,28,70.76,28s-31.68,28-70.76,28S.45,142,.45,142,32.13,114,71.21,114Z"/>
        <path class="cls-2" d="M71.21,170.43c-20.28,0-38.52-7.64-50.25-14.06A126,126,0,0,1,.15,142.3a.44.44,0,0,1,0-.66A126,126,0,0,1,21,127.57c11.73-6.41,30-14.06,50.25-14.06s38.52,7.65,50.25,14.06a126,126,0,0,1,20.81,14.07.44.44,0,0,1,0,.66,126,126,0,0,1-20.81,14.07C109.73,162.79,91.49,170.43,71.21,170.43ZM1.13,142A128.31,128.31,0,0,0,21.41,155.6C33,162,51.12,169.54,71.21,169.54S109.38,162,121,155.6A128.84,128.84,0,0,0,141.29,142,128.84,128.84,0,0,0,121,128.34C109.38,122,91.29,114.4,71.21,114.4S33,122,21.39,128.35A127.94,127.94,0,0,0,1.13,142Z"/>
      </g>
      <g>
        <path class="cls-13" d="M71.21,121.85C110.29,121.85,142,142,142,142s-31.68,20.12-70.76,20.12S.45,142,.45,142,32.13,121.85,71.21,121.85Z"/>
        <path class="cls-2" d="M71.21,162.53c-20.26,0-38.48-5.48-50.2-10.09A134.52,134.52,0,0,1,.21,142.35.45.45,0,0,1,0,142a.47.47,0,0,1,.21-.38A134.52,134.52,0,0,1,21,131.5c11.72-4.61,29.94-10.09,50.2-10.09s38.48,5.48,50.2,10.09a134.52,134.52,0,0,1,20.8,10.09.47.47,0,0,1,.21.38.45.45,0,0,1-.21.38,134.52,134.52,0,0,1-20.8,10.09C109.69,157.05,91.47,162.53,71.21,162.53ZM1.3,142a139.87,139.87,0,0,0,20.06,9.65c11.64,4.57,29.74,10,49.85,10s38.21-5.45,49.85-10A139.87,139.87,0,0,0,141.12,142a139.87,139.87,0,0,0-20.06-9.65c-11.64-4.57-29.74-10-49.85-10C35.66,122.3,5.91,139.22,1.3,142Z"/>
      </g>
      <g>
        <path class="cls-14" d="M71.21,130A222.69,222.69,0,0,1,142,142a222.52,222.52,0,0,1-70.76,12A222.52,222.52,0,0,1,.45,142,222.69,222.69,0,0,1,71.21,130Z"/>
        <path class="cls-2" d="M71.21,154.37a225.15,225.15,0,0,1-70.92-12A.44.44,0,0,1,0,142a.45.45,0,0,1,.29-.42,225.15,225.15,0,0,1,70.92-12,225.23,225.23,0,0,1,70.92,12,.47.47,0,0,1,.29.42.46.46,0,0,1-.29.42A225.23,225.23,0,0,1,71.21,154.37ZM1.77,142a226.32,226.32,0,0,0,69.44,11.51A226.16,226.16,0,0,0,140.64,142a226.16,226.16,0,0,0-69.43-11.51A226.32,226.32,0,0,0,1.77,142Z"/>
      </g>
      <g>
        <path class="cls-15" d="M71.21,138.19A666.46,666.46,0,0,1,142,142a666.46,666.46,0,0,1-70.76,3.78A666.46,666.46,0,0,1,.45,142,666.46,666.46,0,0,1,71.21,138.19Z"/>
        <path class="cls-2" d="M71.21,146.2A671.65,671.65,0,0,1,.39,142.41a.44.44,0,0,1,0-.88,671.65,671.65,0,0,1,70.82-3.79A671.09,671.09,0,0,1,142,141.53a.44.44,0,0,1,0,.88A671.09,671.09,0,0,1,71.21,146.2ZM4.61,142c9.82,1,36.08,3.34,66.6,3.34S128,143,137.8,142c-9.81-1-36.07-3.34-66.59-3.34S14.43,141,4.61,142Z"/>
      </g>
    </g>
    <g>
      <g>
        <path class="cls-16" d="M82.33,189.24C101.87,155.4,142,142,142,142s8.42,41.45-11.12,75.29-59.64,47.27-59.64,47.27S62.78,223.09,82.33,189.24Z"/>
        <path class="cls-2" d="M71.21,265a.46.46,0,0,1-.23-.06.44.44,0,0,1-.21-.3A125.91,125.91,0,0,1,69,239.57c.31-13.36,2.81-33,13-50.55s25.88-29.54,37.3-36.49a125.61,125.61,0,0,1,22.59-11,.45.45,0,0,1,.36,0,.51.51,0,0,1,.22.3,126.12,126.12,0,0,1,1.78,25.05c-.31,13.37-2.81,33-12.95,50.55S105.36,247,93.93,254a125.88,125.88,0,0,1-22.58,11Zm11.12-75.74.38.23c-10,17.39-12.52,36.84-12.83,50.1a127.7,127.7,0,0,0,1.67,24.37A127.72,127.72,0,0,0,93.49,253.2c11.33-6.9,26.94-18.77,37-36.16s12.52-36.85,12.82-50.1a128.3,128.3,0,0,0-1.66-24.38,129,129,0,0,0-21.94,10.75c-11.33,6.89-26.94,18.76-37,36.16Z"/>
      </g>
      <g>
        <path class="cls-17" d="M89.17,193.19C108.71,159.35,142,142,142,142s1.58,37.5-18,71.34-52.8,51.22-52.8,51.22S69.63,227,89.17,193.19Z"/>
        <path class="cls-2" d="M71.21,265a.46.46,0,0,1-.23-.06.46.46,0,0,1-.22-.37,135.75,135.75,0,0,1,1.66-23.06c1.87-12.45,6.23-31,16.36-48.52l.39.22-.39-.22c10.13-17.54,24-30.58,33.84-38.43a135,135,0,0,1,19.14-13,.47.47,0,0,1,.43,0,.46.46,0,0,1,.23.37A135.85,135.85,0,0,1,140.76,165c-1.87,12.45-6.23,31-16.36,48.51s-24,30.59-33.84,38.43a133.73,133.73,0,0,1-19.15,13A.46.46,0,0,1,71.21,265Zm70.33-122.27a140.2,140.2,0,0,0-18.38,12.54c-9.78,7.8-23.55,20.75-33.61,38.17S75.17,229.23,73.3,241.6a140.36,140.36,0,0,0-1.67,22.2A140.53,140.53,0,0,0,90,251.25c9.78-7.8,23.55-20.75,33.61-38.16s14.38-35.82,16.24-48.18A139.13,139.13,0,0,0,141.54,142.71Z"/>
      </g>
      <g>
        <path class="cls-18" d="M96.24,197.28A222.63,222.63,0,0,1,142,142a222.72,222.72,0,0,1-25,67.26,222.46,222.46,0,0,1-45.73,55.3A222.62,222.62,0,0,1,96.24,197.28Z"/>
        <path class="cls-2" d="M71.21,265a.46.46,0,0,1-.23-.06.44.44,0,0,1-.21-.46,215.77,215.77,0,0,1,70.92-122.83.44.44,0,0,1,.5,0,.46.46,0,0,1,.22.46,225.13,225.13,0,0,1-25.08,67.41,225.36,225.36,0,0,1-45.84,55.43A.42.42,0,0,1,71.21,265Zm25-67.7.38.22a226.34,226.34,0,0,0-24.75,65.89A226.39,226.39,0,0,0,116.56,209a226.44,226.44,0,0,0,24.75-65.89A226.17,226.17,0,0,0,96.62,197.5Z"/>
      </g>
      <g>
        <path class="cls-18" d="M103.31,201.36A669,669,0,0,1,142,142a666.46,666.46,0,0,1-32.11,63.17,665.92,665.92,0,0,1-38.65,59.39A666.18,666.18,0,0,1,103.31,201.36Z"/>
        <path class="cls-2" d="M71.21,265a.46.46,0,0,1-.23-.06.44.44,0,0,1-.18-.56A665,665,0,0,1,141.61,141.7a.45.45,0,0,1,.77.45,674.7,674.7,0,0,1-32.13,63.22A668.56,668.56,0,0,1,71.56,264.8.42.42,0,0,1,71.21,265Zm32.1-63.62.39.22C88.44,228,77.33,251.93,73.29,260.93c5.77-8,20.93-29.58,36.19-56s26.36-50.34,30.41-59.34c-5.77,8-20.93,29.57-36.19,56Z"/>
      </g>
    </g>
    <g>
      <g>
        <path class="cls-19" d="M114,212.73c0-39.08,28-70.76,28-70.76s28,31.68,28,70.76-28,70.77-28,70.77S114,251.81,114,212.73Z"/>
        <path class="cls-2" d="M142,283.94a.41.41,0,0,1-.33-.15A125.43,125.43,0,0,1,127.57,263c-6.42-11.73-14.06-30-14.06-50.25s7.64-38.52,14.06-50.25a125,125,0,0,1,14.07-20.8.44.44,0,0,1,.66,0,125,125,0,0,1,14.07,20.8c6.42,11.73,14.06,30,14.06,50.25s-7.64,38.52-14.06,50.25a125.43,125.43,0,0,1-14.07,20.81A.41.41,0,0,1,142,283.94Zm0-141.28a128,128,0,0,0-13.63,20.27c-6.36,11.63-13.94,29.72-13.94,49.8s7.58,38.17,13.94,49.81A128,128,0,0,0,142,282.81a128,128,0,0,0,13.63-20.27c6.36-11.64,13.94-29.72,13.94-49.81s-7.58-38.17-13.94-49.8A128,128,0,0,0,142,142.66Z"/>
      </g>
      <g>
        <path class="cls-20" d="M121.85,212.73C121.85,173.65,142,142,142,142s20.12,31.68,20.12,70.76S142,283.5,142,283.5,121.85,251.81,121.85,212.73Z"/>
        <path class="cls-2" d="M142,283.94a.47.47,0,0,1-.38-.21,134.52,134.52,0,0,1-10.09-20.8c-4.61-11.72-10.09-29.94-10.09-50.2s5.48-38.48,10.09-50.2a135.11,135.11,0,0,1,10.09-20.8.47.47,0,0,1,.76,0,135.11,135.11,0,0,1,10.09,20.8c4.61,11.72,10.09,29.95,10.09,50.2s-5.48,38.48-10.09,50.2a134.52,134.52,0,0,1-10.09,20.8A.47.47,0,0,1,142,283.94Zm0-141.12a139.87,139.87,0,0,0-9.65,20.06c-4.57,11.64-10,29.74-10,49.85s5.45,38.21,10,49.86A139.52,139.52,0,0,0,142,282.64a139.52,139.52,0,0,0,9.65-20.05c4.57-11.65,10-29.75,10-49.86s-5.45-38.21-10-49.85A139.87,139.87,0,0,0,142,142.82Z"/>
      </g>
      <g>
        <path class="cls-21" d="M130,212.73A222.69,222.69,0,0,1,142,142a222.52,222.52,0,0,1,12,70.76,222.62,222.62,0,0,1-12,70.77A222.79,222.79,0,0,1,130,212.73Z"/>
        <path class="cls-2" d="M142,283.94a.44.44,0,0,1-.42-.29,225.08,225.08,0,0,1-12-70.92,225.23,225.23,0,0,1,12-70.92.46.46,0,0,1,.84,0,225.23,225.23,0,0,1,12,70.92,225.08,225.08,0,0,1-12,70.92A.44.44,0,0,1,142,283.94Zm0-140.64a226.23,226.23,0,0,0-11.51,69.43A226.25,226.25,0,0,0,142,282.17a226.25,226.25,0,0,0,11.51-69.44A226.23,226.23,0,0,0,142,143.3Z"/>
      </g>
      <g>
        <path class="cls-22" d="M138.19,212.73A666.46,666.46,0,0,1,142,142a666.46,666.46,0,0,1,3.78,70.76A666.78,666.78,0,0,1,142,283.5,666.78,666.78,0,0,1,138.19,212.73Z"/>
        <path class="cls-2" d="M142,283.94a.44.44,0,0,1-.44-.39,663.47,663.47,0,0,1,0-141.63.44.44,0,0,1,.88,0,671.33,671.33,0,0,1,3.79,70.81,671.65,671.65,0,0,1-3.79,70.82A.44.44,0,0,1,142,283.94Zm0-137.8c-1,9.81-3.33,36.07-3.33,66.59s2.33,56.78,3.33,66.6c1-9.82,3.34-36.08,3.34-66.6S143,156,142,146.14Z"/>
      </g>
    </g>
    <g>
      <g>
        <path class="cls-23" d="M189.24,201.62C155.4,182.08,142,142,142,142s41.45-8.42,75.29,11.12,47.27,59.64,47.27,59.64S223.09,221.16,189.24,201.62Z"/>
        <path class="cls-2" d="M242.71,215l-3.14,0c-13.36-.31-33-2.81-50.55-12.95s-29.54-25.88-36.49-37.3a125.61,125.61,0,0,1-11-22.59.45.45,0,0,1,0-.36.51.51,0,0,1,.3-.22,125.71,125.71,0,0,1,25.05-1.77c13.37.3,33,2.8,50.56,12.94S247,178.59,254,190a125.88,125.88,0,0,1,11,22.58.48.48,0,0,1,0,.37.44.44,0,0,1-.3.21A122.75,122.75,0,0,1,242.71,215Zm-53.24-13.75c17.39,10,36.84,12.52,50.1,12.83a127.79,127.79,0,0,0,24.37-1.67,127.72,127.72,0,0,0-10.74-21.94c-6.9-11.33-18.77-26.93-36.16-37s-36.85-12.51-50.1-12.82a128.3,128.3,0,0,0-24.38,1.66,128.57,128.57,0,0,0,10.75,21.94c6.89,11.33,18.76,26.94,36.16,37Z"/>
      </g>
      <g>
        <path class="cls-24" d="M193.19,194.77C159.35,175.23,142,142,142,142s37.5-1.58,71.34,18,51.22,52.8,51.22,52.8S227,214.32,193.19,194.77Z"/>
        <path class="cls-2" d="M262.53,213.21a145.94,145.94,0,0,1-21-1.69c-12.45-1.87-31-6.23-48.52-16.36s-30.58-24-38.43-33.84a135,135,0,0,1-13-19.14.44.44,0,0,1,0-.43.45.45,0,0,1,.37-.22A133.85,133.85,0,0,1,165,143.18c12.45,1.88,31,6.23,48.51,16.36s30.59,24,38.43,33.84a133.73,133.73,0,0,1,13,19.15.44.44,0,0,1,0,.43.46.46,0,0,1-.37.22S263.82,213.21,262.53,213.21ZM142.71,142.4a140,140,0,0,0,12.54,18.39c7.8,9.78,20.75,23.54,38.17,33.6s35.81,14.38,48.18,16.25a140.33,140.33,0,0,0,22.19,1.67,138.94,138.94,0,0,0-12.54-18.39c-7.8-9.78-20.75-23.55-38.16-33.6s-35.82-14.39-48.18-16.25A140.43,140.43,0,0,0,142.71,142.4Z"/>
      </g>
      <g>
        <path class="cls-25" d="M197.28,187.7A222.63,222.63,0,0,1,142,142a222.72,222.72,0,0,1,67.26,25,222.69,222.69,0,0,1,55.3,45.73A222.3,222.3,0,0,1,197.28,187.7Z"/>
        <path class="cls-2" d="M264.53,213.18h-.07a224.91,224.91,0,0,1-67.41-25.08,224.71,224.71,0,0,1-55.42-45.84.44.44,0,0,1,0-.5.46.46,0,0,1,.46-.22,225.46,225.46,0,0,1,67.41,25.08,225.36,225.36,0,0,1,55.43,45.84.45.45,0,0,1,0,.51A.44.44,0,0,1,264.53,213.18ZM143.12,142.63a226.17,226.17,0,0,0,54.38,44.69h0a226.34,226.34,0,0,0,65.89,24.75A226.39,226.39,0,0,0,209,167.38,226.44,226.44,0,0,0,143.12,142.63Z"/>
      </g>
      <g>
        <path class="cls-25" d="M201.36,180.63A666.37,666.37,0,0,1,142,142a666.46,666.46,0,0,1,63.17,32.11,665.92,665.92,0,0,1,59.39,38.65A666.18,666.18,0,0,1,201.36,180.63Z"/>
        <path class="cls-2" d="M264.53,213.18a.38.38,0,0,1-.17,0A671.79,671.79,0,0,1,201.14,181a675.5,675.5,0,0,1-59.44-38.68.45.45,0,0,1,.45-.77,676.11,676.11,0,0,1,63.22,32.13,671.2,671.2,0,0,1,59.43,38.69.44.44,0,0,1-.27.8ZM145.58,144.05c8,5.78,29.57,20.93,56,36.19s50.35,26.37,59.35,30.41c-8-5.77-29.58-20.93-56-36.19S154.58,148.1,145.58,144.05Z"/>
      </g>
    </g>
    <g>
      <g>
        <path class="cls-26" d="M212.73,170C173.65,170,142,142,142,142s31.68-28,70.76-28,70.77,28,70.77,28S251.81,170,212.73,170Z"/>
        <path class="cls-2" d="M212.73,170.43c-20.28,0-38.52-7.64-50.25-14.06a125,125,0,0,1-20.8-14.07.42.42,0,0,1,0-.66,125,125,0,0,1,20.8-14.07c11.73-6.41,30-14.06,50.25-14.06s38.52,7.65,50.25,14.06a125.43,125.43,0,0,1,20.81,14.07.44.44,0,0,1,0,.66A125.43,125.43,0,0,1,263,156.37C251.25,162.79,233,170.43,212.73,170.43ZM142.65,142a128.84,128.84,0,0,0,20.28,13.63c11.63,6.36,29.72,13.94,49.8,13.94S250.9,162,262.54,155.6A128,128,0,0,0,282.81,142a128,128,0,0,0-20.27-13.63C250.9,122,232.82,114.4,212.73,114.4s-38.17,7.58-49.8,13.94A128.84,128.84,0,0,0,142.65,142Z"/>
      </g>
      <g>
        <path class="cls-27" d="M212.73,162.09C173.65,162.09,142,142,142,142s31.68-20.12,70.76-20.12S283.5,142,283.5,142,251.81,162.09,212.73,162.09Z"/>
        <path class="cls-2" d="M212.73,162.53c-20.25,0-38.48-5.48-50.2-10.09a135.11,135.11,0,0,1-20.8-10.09.45.45,0,0,1-.21-.38.47.47,0,0,1,.21-.38,135.11,135.11,0,0,1,20.8-10.09c11.72-4.61,29.95-10.09,50.2-10.09s38.48,5.48,50.2,10.09a133.94,133.94,0,0,1,20.8,10.09.47.47,0,0,1,.21.38.45.45,0,0,1-.21.38,133.94,133.94,0,0,1-20.8,10.09C251.21,157.05,233,162.53,212.73,162.53ZM142.82,142a139.87,139.87,0,0,0,20.06,9.65c11.64,4.57,29.74,10,49.85,10s38.21-5.45,49.86-10A139.52,139.52,0,0,0,282.64,142a139.52,139.52,0,0,0-20.05-9.65c-11.65-4.57-29.75-10-49.86-10s-38.21,5.45-49.85,10A139.87,139.87,0,0,0,142.82,142Z"/>
      </g>
      <g>
        <path class="cls-28" d="M212.73,153.93A222.52,222.52,0,0,1,142,142,222.69,222.69,0,0,1,212.73,130,222.79,222.79,0,0,1,283.5,142,222.62,222.62,0,0,1,212.73,153.93Z"/>
        <path class="cls-2" d="M212.73,154.37a225.23,225.23,0,0,1-70.92-12,.46.46,0,0,1-.29-.42.47.47,0,0,1,.29-.42,225.23,225.23,0,0,1,70.92-12,225.08,225.08,0,0,1,70.92,12,.45.45,0,0,1,.29.42.44.44,0,0,1-.29.42A225.08,225.08,0,0,1,212.73,154.37ZM143.3,142a226.23,226.23,0,0,0,69.43,11.51A226.25,226.25,0,0,0,282.17,142a226.25,226.25,0,0,0-69.44-11.51A226.23,226.23,0,0,0,143.3,142Z"/>
      </g>
      <g>
        <path class="cls-29" d="M212.73,145.75A666.46,666.46,0,0,1,142,142a664.28,664.28,0,0,1,141.53,0A666.78,666.78,0,0,1,212.73,145.75Z"/>
        <path class="cls-2" d="M212.73,146.2a671.09,671.09,0,0,1-70.81-3.79.44.44,0,0,1,0-.88,663.47,663.47,0,0,1,141.63,0,.44.44,0,0,1,0,.88A671.65,671.65,0,0,1,212.73,146.2ZM146.14,142c9.81,1,36.07,3.34,66.59,3.34s56.78-2.34,66.6-3.34c-9.82-1-36.08-3.34-66.6-3.34S156,141,146.14,142Z"/>
      </g>
    </g>
    <g>
      <g>
        <path class="cls-30" d="M217.26,130.85C183.42,150.39,142,142,142,142s13.43-40.1,47.27-59.64,75.29-11.12,75.29-11.12S251.11,111.31,217.26,130.85Z"/>
        <path class="cls-2" d="M163.79,144.22a123,123,0,0,1-21.91-1.81.51.51,0,0,1-.3-.22.45.45,0,0,1,0-.36,125.61,125.61,0,0,1,11-22.59c6.95-11.42,18.93-27.16,36.49-37.3s37.19-12.64,50.55-13a125.91,125.91,0,0,1,25.05,1.78.43.43,0,0,1,.3.22.45.45,0,0,1,0,.36,125.88,125.88,0,0,1-11,22.58c-6.95,11.43-18.92,27.17-36.48,37.31h0c-17.57,10.14-37.19,12.64-50.56,12.95Zm-21.23-2.59a129.13,129.13,0,0,0,24.38,1.66c13.25-.3,32.7-2.78,50.1-12.82l.22.38-.22-.38c17.4-10,29.27-25.67,36.17-37a127.91,127.91,0,0,0,10.73-21.92,128.07,128.07,0,0,0-24.37-1.66c-13.26.3-32.71,2.78-50.1,12.82s-29.28,25.67-36.17,37A127.48,127.48,0,0,0,142.56,141.63Z"/>
      </g>
      <g>
        <path class="cls-31" d="M213.31,124C179.47,143.55,142,142,142,142s17.38-33.26,51.22-52.8,71.34-18,71.34-18S247.16,104.47,213.31,124Z"/>
        <path class="cls-2" d="M144,142.44c-1.28,0-2,0-2,0a.46.46,0,0,1-.37-.23.44.44,0,0,1,0-.43,135,135,0,0,1,13-19.14c7.85-9.85,20.89-23.71,38.43-33.84S229,74.29,241.49,72.42a135.75,135.75,0,0,1,23.06-1.66.44.44,0,0,1,.37.23.42.42,0,0,1,0,.42,133.73,133.73,0,0,1-13,19.15c-7.84,9.85-20.88,23.71-38.43,33.84S177.47,138.89,165,140.76A145.58,145.58,0,0,1,144,142.44Zm-1.26-.9a139.9,139.9,0,0,0,22.2-1.66c12.36-1.87,30.76-6.2,48.18-16.25S243.45,99.8,251.25,90a139.82,139.82,0,0,0,12.54-18.38A139.8,139.8,0,0,0,241.6,73.3c-12.37,1.87-30.77,6.2-48.18,16.25s-30.37,23.83-38.17,33.61A140.2,140.2,0,0,0,142.71,141.54Z"/>
      </g>
      <g>
        <path class="cls-32" d="M209.23,116.94A222.72,222.72,0,0,1,142,142,215.5,215.5,0,0,1,264.53,71.21,222.69,222.69,0,0,1,209.23,116.94Z"/>
        <path class="cls-2" d="M142,142.42a.45.45,0,0,1-.39-.23.44.44,0,0,1,0-.5A215.77,215.77,0,0,1,264.46,70.77a.43.43,0,0,1,.46.22.44.44,0,0,1,0,.5,225.36,225.36,0,0,1-55.43,45.84A224.81,224.81,0,0,1,142,142.41ZM263.39,71.87a215.18,215.18,0,0,0-120.27,69.44A226.44,226.44,0,0,0,209,116.56,226.39,226.39,0,0,0,263.39,71.87Z"/>
      </g>
      <g>
        <path class="cls-32" d="M205.14,109.86A666.46,666.46,0,0,1,142,142,663.22,663.22,0,0,1,264.53,71.21,665.92,665.92,0,0,1,205.14,109.86Z"/>
        <path class="cls-2" d="M142,142.42a.46.46,0,0,1-.39-.23.45.45,0,0,1,.12-.58A665,665,0,0,1,264.36,70.8a.44.44,0,0,1,.44.76,668.56,668.56,0,0,1-59.43,38.69,676.11,676.11,0,0,1-63.22,32.13A.58.58,0,0,1,142,142.42Zm119-69.13c-9,4-32.91,15.15-59.35,30.41s-48,30.42-56,36.19c9-4,32.91-15.15,59.34-30.41l.22.38-.22-.38C231.35,94.22,252.93,79.06,260.93,73.29Z"/>
      </g>
    </g>
    <g>
      <g>
        <path class="cls-33" d="M201.62,94.7C182.07,128.54,142,142,142,142s-8.42-41.45,11.12-75.29,59.64-47.27,59.64-47.27S221.16,60.85,201.62,94.7Z"/>
        <path class="cls-2" d="M142,142.42a.43.43,0,0,1-.22-.06.51.51,0,0,1-.22-.3,125.61,125.61,0,0,1-1.77-25c.3-13.37,2.8-33,12.94-50.55S178.59,36.92,190,30a126.25,126.25,0,0,1,22.58-11,.48.48,0,0,1,.37,0,.44.44,0,0,1,.21.3,126,126,0,0,1,1.78,25c-.31,13.37-2.81,33-12.95,50.55l-.38-.22.38.22c-10.14,17.57-25.88,29.54-37.3,36.49a125.61,125.61,0,0,1-22.59,11A.32.32,0,0,1,142,142.42ZM212.39,20a127.72,127.72,0,0,0-21.94,10.74c-11.33,6.9-26.93,18.77-37,36.16S141,103.75,140.65,117a128.21,128.21,0,0,0,1.66,24.38,127.74,127.74,0,0,0,21.94-10.75c11.33-6.89,26.94-18.76,37-36.16h0c10-17.39,12.52-36.84,12.83-50.1A127.79,127.79,0,0,0,212.39,20Z"/>
      </g>
      <g>
        <path class="cls-34" d="M194.77,90.75C175.23,124.59,142,142,142,142s-1.58-37.5,18-71.34,52.8-51.22,52.8-51.22S214.32,56.9,194.77,90.75Z"/>
        <path class="cls-2" d="M142,142.42a.43.43,0,0,1-.22-.06.45.45,0,0,1-.22-.37,133.76,133.76,0,0,1,1.65-23.06c1.87-12.46,6.23-31,16.36-48.52s24-30.58,33.84-38.43a133.73,133.73,0,0,1,19.15-13,.44.44,0,0,1,.43,0,.46.46,0,0,1,.22.37,135.75,135.75,0,0,1-1.66,23.06c-1.87,12.45-6.23,31-16.36,48.52l-.39-.22.39.22c-10.13,17.54-24,30.58-33.84,38.43a136.83,136.83,0,0,1-19.14,13A.54.54,0,0,1,142,142.42ZM212.31,20.15a138.94,138.94,0,0,0-18.39,12.54c-9.78,7.8-23.55,20.75-33.61,38.16S145.93,106.67,144.07,119a140.33,140.33,0,0,0-1.67,22.19,140.2,140.2,0,0,0,18.38-12.54c9.78-7.8,23.55-20.75,33.61-38.17s14.38-35.81,16.25-48.18A140.33,140.33,0,0,0,212.31,20.15Z"/>
      </g>
      <g>
        <path class="cls-35" d="M187.7,86.67A222.69,222.69,0,0,1,142,142a222.72,222.72,0,0,1,25-67.26,222.69,222.69,0,0,1,45.73-55.3A222.4,222.4,0,0,1,187.7,86.67Z"/>
        <path class="cls-2" d="M142,142.42a.43.43,0,0,1-.22-.06.46.46,0,0,1-.22-.46,225.46,225.46,0,0,1,25.08-67.41,225.36,225.36,0,0,1,45.84-55.43.45.45,0,0,1,.51,0,.44.44,0,0,1,.21.46,224.91,224.91,0,0,1-25.08,67.41l-.39-.22.39.22a225.11,225.11,0,0,1-45.84,55.43A.48.48,0,0,1,142,142.42Zm70.1-121.87a226.39,226.39,0,0,0-44.69,54.38,226.44,226.44,0,0,0-24.75,65.89,226.17,226.17,0,0,0,44.69-54.38A226.34,226.34,0,0,0,212.07,20.55Z"/>
      </g>
      <g>
        <path class="cls-35" d="M180.63,82.58A666.37,666.37,0,0,1,142,142,664.73,664.73,0,0,1,212.73,19.41,666.18,666.18,0,0,1,180.63,82.58Z"/>
        <path class="cls-2" d="M142,142.42a.43.43,0,0,1-.22-.06.44.44,0,0,1-.19-.56A663.44,663.44,0,0,1,212.38,19.14a.44.44,0,0,1,.76.44A670.4,670.4,0,0,1,181,82.8a675.5,675.5,0,0,1-38.68,59.44A.47.47,0,0,1,142,142.42ZM210.65,23c-5.77,8-20.93,29.58-36.19,56s-26.36,50.34-30.41,59.34c5.78-8,20.93-29.57,36.19-56l.39.22-.39-.22C195.5,55.92,206.61,32,210.65,23Z"/>
      </g>
    </g>
    <g>
      <g>
        <path class="cls-36" d="M66.68,153.09C100.52,133.55,142,142,142,142s-13.43,40.11-47.27,59.65-75.29,11.11-75.29,11.11S32.83,172.63,66.68,153.09Z"/>
        <path class="cls-2" d="M41.23,215a122.75,122.75,0,0,1-21.91-1.81A.44.44,0,0,1,19,213a.48.48,0,0,1,0-.37A125.88,125.88,0,0,1,30,190c7-11.42,18.92-27.17,36.49-37.31l.22.39-.22-.39C84,142.56,103.64,140.06,117,139.76a125.82,125.82,0,0,1,25,1.77.51.51,0,0,1,.3.22.45.45,0,0,1,0,.36,125.61,125.61,0,0,1-11,22.59c-7,11.42-18.93,27.16-36.49,37.3S57.74,214.64,44.37,215ZM20,212.39a127.7,127.7,0,0,0,24.37,1.67c13.26-.31,32.71-2.79,50.1-12.83s29.28-25.66,36.18-37a127.91,127.91,0,0,0,10.73-21.92A128.3,128.3,0,0,0,117,140.65c-13.25.31-32.7,2.78-50.1,12.82s-29.27,25.67-36.17,37A127.91,127.91,0,0,0,20,212.39Z"/>
      </g>
      <g>
        <path class="cls-37" d="M70.63,159.93C104.47,140.39,142,142,142,142s-17.38,33.26-51.22,52.8-71.34,18-71.34,18S36.78,179.47,70.63,159.93Z"/>
        <path class="cls-2" d="M21.41,213.21c-1.29,0-2,0-2,0A.46.46,0,0,1,19,213a.44.44,0,0,1,0-.43,133.73,133.73,0,0,1,13-19.15c7.85-9.84,20.88-23.71,38.43-33.84l.22.39-.22-.39c17.54-10.13,36.07-14.48,48.52-16.36A133.72,133.72,0,0,1,142,141.53a.45.45,0,0,1,.37.22.47.47,0,0,1,0,.43,136.83,136.83,0,0,1-13,19.14C121.55,171.17,108.51,185,91,195.16S54.9,209.65,42.45,211.52A145.94,145.94,0,0,1,21.41,213.21Zm-1.26-.9a140.33,140.33,0,0,0,22.19-1.67c12.37-1.87,30.77-6.2,48.19-16.25s30.36-23.82,38.16-33.6a140,140,0,0,0,12.54-18.39A140.33,140.33,0,0,0,119,144.07c-12.37,1.86-30.77,6.19-48.19,16.25C40.06,178.09,22.76,207.62,20.15,212.31Z"/>
      </g>
      <g>
        <path class="cls-38" d="M74.71,167A222.72,222.72,0,0,1,142,142a222.69,222.69,0,0,1-55.3,45.73,222.4,222.4,0,0,1-67.26,25A222.69,222.69,0,0,1,74.71,167Z"/>
        <path class="cls-2" d="M19.41,213.18A.44.44,0,0,1,19,213a.45.45,0,0,1,0-.51,225.36,225.36,0,0,1,55.43-45.84,225.46,225.46,0,0,1,67.41-25.08.45.45,0,0,1,.42.72,225.11,225.11,0,0,1-55.43,45.84,224.91,224.91,0,0,1-67.41,25.08Zm121.41-70.55a226.44,226.44,0,0,0-65.89,24.75,226.64,226.64,0,0,0-54.38,44.69,226.34,226.34,0,0,0,65.89-24.75A226.17,226.17,0,0,0,140.82,142.63Z"/>
      </g>
      <g>
        <path class="cls-38" d="M78.8,174.08A666.46,666.46,0,0,1,142,142a666.37,666.37,0,0,1-59.39,38.66,666.18,666.18,0,0,1-63.17,32.1A665.92,665.92,0,0,1,78.8,174.08Z"/>
        <path class="cls-2" d="M19.41,213.18a.44.44,0,0,1-.27-.8,664.66,664.66,0,0,1,122.65-70.82.45.45,0,0,1,.45.77A675.5,675.5,0,0,1,82.8,181a670.4,670.4,0,0,1-63.22,32.13A.35.35,0,0,1,19.41,213.18Zm119-69.13c-9,4-32.91,15.15-59.34,30.41s-48,30.42-56,36.19c9-4,32.91-15.15,59.35-30.41S130.36,149.83,138.36,144.05Z"/>
      </g>
    </g>
    <g>
      <g>
        <path class="cls-39" d="M153.09,217.26C133.55,183.42,142,142,142,142s40.1,13.43,59.65,47.27,11.11,75.29,11.11,75.29S172.63,251.11,153.09,217.26Z"/>
        <path class="cls-2" d="M212.73,265l-.14,0A126.25,126.25,0,0,1,190,254c-11.42-6.95-27.17-18.92-37.31-36.49s-12.64-37.18-12.94-50.55a125.71,125.71,0,0,1,1.77-25.05.51.51,0,0,1,.22-.3.45.45,0,0,1,.36,0,125.61,125.61,0,0,1,22.59,11c11.42,6.95,27.16,18.93,37.3,36.49s12.64,37.19,12.95,50.55a125.91,125.91,0,0,1-1.78,25.05.44.44,0,0,1-.21.3A.46.46,0,0,1,212.73,265ZM142.31,142.56a128.3,128.3,0,0,0-1.66,24.38c.31,13.25,2.78,32.7,12.82,50.1s25.65,29.26,37,36.16a127.72,127.72,0,0,0,21.94,10.74,127.7,127.7,0,0,0,1.67-24.37c-.31-13.26-2.79-32.71-12.83-50.1s-25.65-29.27-37-36.16A128.57,128.57,0,0,0,142.31,142.56Z"/>
      </g>
      <g>
        <path class="cls-40" d="M159.93,213.31C140.39,179.47,142,142,142,142s33.26,17.38,52.8,51.22,18,71.34,18,71.34S179.47,247.16,159.93,213.31Z"/>
        <path class="cls-2" d="M212.73,265a.46.46,0,0,1-.2-.05,133.73,133.73,0,0,1-19.15-13c-9.85-7.84-23.71-20.88-33.84-38.43S145.05,177.47,143.18,165A133.85,133.85,0,0,1,141.53,142a.45.45,0,0,1,.22-.37.47.47,0,0,1,.43,0,135,135,0,0,1,19.14,13c9.85,7.85,23.71,20.89,33.84,38.43s14.49,36.07,16.36,48.52a135.75,135.75,0,0,1,1.66,23.06.46.46,0,0,1-.22.37A.46.46,0,0,1,212.73,265ZM142.4,142.71a140.43,140.43,0,0,0,1.67,22.2c1.86,12.36,6.19,30.76,16.24,48.18s23.83,30.36,33.61,38.16a140.53,140.53,0,0,0,18.39,12.55,140.36,140.36,0,0,0-1.67-22.2c-1.87-12.37-6.2-30.77-16.25-48.18s-23.83-30.37-33.61-38.17A140.2,140.2,0,0,0,142.4,142.71Z"/>
      </g>
      <g>
        <path class="cls-41" d="M167,209.23A222.72,222.72,0,0,1,142,142a222.63,222.63,0,0,1,45.73,55.31,222.3,222.3,0,0,1,25,67.25A222.46,222.46,0,0,1,167,209.23Z"/>
        <path class="cls-2" d="M212.73,265a.42.42,0,0,1-.28-.1,225.36,225.36,0,0,1-45.84-55.43A225.46,225.46,0,0,1,141.53,142a.46.46,0,0,1,.22-.46.44.44,0,0,1,.5,0,224.71,224.71,0,0,1,45.84,55.42,224.91,224.91,0,0,1,25.08,67.41.44.44,0,0,1-.21.46A.46.46,0,0,1,212.73,265Zm-70.1-121.86A226.44,226.44,0,0,0,167.38,209a226.39,226.39,0,0,0,44.69,54.38,226.34,226.34,0,0,0-24.75-65.89A226.17,226.17,0,0,0,142.63,143.12Z"/>
      </g>
      <g>
        <path class="cls-41" d="M174.08,205.14A666.46,666.46,0,0,1,142,142a666.37,666.37,0,0,1,38.66,59.39,666.18,666.18,0,0,1,32.1,63.17A665.92,665.92,0,0,1,174.08,205.14Z"/>
        <path class="cls-2" d="M212.73,265a.42.42,0,0,1-.35-.18,671.2,671.2,0,0,1-38.69-59.43,674.7,674.7,0,0,1-32.13-63.22.45.45,0,0,1,.77-.45A675.5,675.5,0,0,1,181,201.14a671.79,671.79,0,0,1,32.13,63.22.44.44,0,0,1-.18.56A.46.46,0,0,1,212.73,265Zm-38.27-60.06c15.26,26.43,30.42,48,36.19,56-4-9-15.15-32.91-30.41-59.35s-30.41-48-36.19-56C148.1,154.58,159.2,178.49,174.46,204.92Z"/>
      </g>
    </g>
  </g>
</svg>
