<svg id="Layer_55" data-name="Layer 55" xmlns="http://www.w3.org/2000/svg" xmlns:xlink="http://www.w3.org/1999/xlink" viewBox="0 0 681.57 399.95">
  <defs>
    <style>
      .cls-1 {
        fill: url(#radial-gradient);
      }

      .cls-2 {
        fill: #fff;
      }

      .cls-3 {
        fill: url(#radial-gradient-2);
      }

      .cls-4 {
        fill: url(#radial-gradient-3);
      }

      .cls-5 {
        fill: url(#radial-gradient-4);
      }

      .cls-6 {
        fill: url(#radial-gradient-5);
      }

      .cls-7 {
        fill: url(#radial-gradient-6);
      }

      .cls-8 {
        fill: url(#radial-gradient-7);
      }

      .cls-9 {
        fill: url(#radial-gradient-9);
      }

      .cls-10 {
        fill: url(#radial-gradient-10);
      }

      .cls-11 {
        fill: url(#radial-gradient-13);
      }

      .cls-12 {
        fill: url(#radial-gradient-15);
      }

      .cls-13 {
        fill: url(#linear-gradient);
      }

      .cls-14 {
        fill: url(#radial-gradient-16);
      }

      .cls-15 {
        fill: url(#radial-gradient-17);
      }

      .cls-16 {
        fill: url(#radial-gradient-18);
      }
    </style>
    <radialGradient id="radial-gradient" cx="340.45" cy="370.68" r="360.81" gradientUnits="userSpaceOnUse">
      <stop offset="0.01" stop-color="#dad0fd"/>
      <stop offset="0.26" stop-color="#d9cffd"/>
      <stop offset="0.47" stop-color="#e0d7fd"/>
      <stop offset="0.8" stop-color="#f2effe"/>
      <stop offset="1" stop-color="#fff"/>
    </radialGradient>
    <radialGradient id="radial-gradient-2" cx="340.45" cy="370.68" r="360.8" xlink:href="#radial-gradient"/>
    <radialGradient id="radial-gradient-3" cx="340.45" cy="370.68" r="360.82" xlink:href="#radial-gradient"/>
    <radialGradient id="radial-gradient-4" cx="340.45" cy="370.68" r="360.81" xlink:href="#radial-gradient"/>
    <radialGradient id="radial-gradient-5" cx="340.45" cy="370.68" r="360.81" xlink:href="#radial-gradient"/>
    <radialGradient id="radial-gradient-6" cx="340.45" cy="370.68" r="360.81" xlink:href="#radial-gradient"/>
    <radialGradient id="radial-gradient-7" cx="340.45" cy="370.68" r="360.81" xlink:href="#radial-gradient"/>
    <radialGradient id="radial-gradient-9" cx="340.45" cy="370.68" r="360.81" xlink:href="#radial-gradient"/>
    <radialGradient id="radial-gradient-10" cx="340.45" cy="370.68" r="360.81" xlink:href="#radial-gradient"/>
    <radialGradient id="radial-gradient-13" cx="340.45" cy="370.68" r="360.81" xlink:href="#radial-gradient"/>
    <radialGradient id="radial-gradient-15" cx="340.45" cy="370.68" r="360.81" xlink:href="#radial-gradient"/>
    <linearGradient id="linear-gradient" x1="340.78" y1="295.36" x2="679.85" y2="295.36" xlink:href="#radial-gradient"/>
    <radialGradient id="radial-gradient-16" cx="340.45" cy="370.68" r="360.81" xlink:href="#radial-gradient"/>
    <radialGradient id="radial-gradient-17" cx="340.45" cy="370.68" r="360.81" xlink:href="#radial-gradient"/>
    <radialGradient id="radial-gradient-18" cx="340.45" cy="370.68" r="360.81" xlink:href="#radial-gradient"/>
  </defs>
  <title>lotus</title>
  <g>
    <g>
      <g>
        <path class="cls-1" d="M418.29,197.48c0,108.11-77.51,195.76-77.51,195.76s-77.51-87.65-77.51-195.76S340.78,1.72,340.78,1.72,418.29,89.36,418.29,197.48Z"/>
        <path class="cls-2" d="M340.78,395a1.69,1.69,0,0,1-1.28-.58c-.2-.22-19.73-22.47-39-57.65-17.77-32.5-39-83-39-139.25s21.19-106.75,39-139.25C319.77,23,339.3.8,339.5.58A1.69,1.69,0,0,1,340.78,0h0a1.7,1.7,0,0,1,1.29.58c.2.22,19.73,22.46,39,57.65,17.77,32.5,39,83,39,139.25s-21.19,106.75-39,139.25c-19.25,35.18-38.78,57.43-39,57.65A1.7,1.7,0,0,1,340.78,395Zm0-390.6A357.31,357.31,0,0,0,303.49,60C285.93,92.09,265,142,265,197.48S285.93,302.87,303.49,335a357.55,357.55,0,0,0,37.29,55.59A356,356,0,0,0,378.07,335c17.57-32.13,38.5-82.07,38.5-137.52S395.64,92.09,378.07,60A355.8,355.8,0,0,0,340.78,4.36Z"/>
      </g>
      <g>
        <path class="cls-3" d="M396.44,197.48c0,108.11-55.66,195.76-55.66,195.76s-55.65-87.65-55.65-195.76S340.78,1.72,340.78,1.72,396.44,89.36,396.44,197.48Z"/>
        <path class="cls-2" d="M340.78,395a1.73,1.73,0,0,1-1.45-.8c-.14-.22-14.16-22.46-28-57.63-12.75-32.46-27.95-82.93-27.95-139s15.2-106.59,27.95-139C325.17,23.25,339.19,1,339.33.8a1.73,1.73,0,0,1,1.45-.8h0a1.7,1.7,0,0,1,1.45.8c.14.22,14.17,22.45,28,57.63,12.75,32.46,27.94,82.93,27.94,139s-15.19,106.59-27.94,139c-13.81,35.17-27.84,57.41-28,57.63A1.7,1.7,0,0,1,340.78,395ZM340.78,5c-8.74,14.78-53.93,95.9-53.93,192.44S332,375.14,340.78,389.92c8.75-14.78,53.94-95.9,53.94-192.44S349.53,19.82,340.78,5Z"/>
      </g>
      <g>
        <path class="cls-4" d="M373.85,197.48c0,108.11-33.07,195.76-33.07,195.76s-33.07-87.65-33.07-195.76S340.78,1.72,340.78,1.72,373.85,89.36,373.85,197.48Z"/>
        <path class="cls-2" d="M340.78,395a1.72,1.72,0,0,1-1.6-1.12C338.85,393,306,304.67,306,197.48S338.85,2,339.18,1.11A1.71,1.71,0,0,1,340.78,0h0a1.71,1.71,0,0,1,1.61,1.11c.33.88,33.18,89.18,33.18,196.37S342.72,393,342.39,393.84A1.72,1.72,0,0,1,340.78,395Zm0-388.09c-6.61,19.33-31.35,97.84-31.35,190.61s24.74,171.28,31.35,190.6c6.62-19.32,31.36-97.84,31.36-190.6S347.4,26.2,340.78,6.87Z"/>
      </g>
      <g>
        <path class="cls-5" d="M351.25,197.48c0,108.11-10.47,195.76-10.47,195.76s-10.46-87.65-10.46-195.76S340.78,1.72,340.78,1.72,351.25,89.36,351.25,197.48Z"/>
        <path class="cls-2" d="M340.78,395a1.71,1.71,0,0,1-1.7-1.52c-.11-.88-10.47-89-10.47-196S339,2.39,339.08,1.51a1.72,1.72,0,0,1,3.41,0c.11.88,10.47,89,10.47,196s-10.36,195.08-10.47,196A1.72,1.72,0,0,1,340.78,395Zm0-376.83c-3,30.26-8.74,99.54-8.74,179.35s5.78,149.09,8.74,179.35c3-30.26,8.75-99.54,8.75-179.35S343.75,48.39,340.78,18.13Z"/>
      </g>
    </g>
    <g>
      <g>
        <path class="cls-6" d="M310,185c54.06,93.63,30.75,208.29,30.75,208.29s-110.94-37.15-165-130.78S145,54.17,145,54.17,256,91.32,310,185Z"/>
        <path class="cls-2" d="M340.78,395a1.7,1.7,0,0,1-.54-.09c-.28-.1-28.32-9.59-62.58-30.44C246,345.17,202.4,312,174.29,263.32s-35-103-35.88-140.08c-.92-40.09,4.87-69.12,4.93-69.41a1.76,1.76,0,0,1,.82-1.15,1.78,1.78,0,0,1,1.41-.14c.28.1,28.31,9.59,62.58,30.44,31.64,19.26,75.26,52.43,103.36,101.11s35,103,35.88,140.08c.93,40.09-4.86,69.12-4.92,69.41a1.73,1.73,0,0,1-1.69,1.38ZM146.35,56.46a356.28,356.28,0,0,0-4.5,66.79c.85,36.61,7.69,90.33,35.42,138.35s70.82,80.8,102.1,99.85A356.47,356.47,0,0,0,339.46,391a356.28,356.28,0,0,0,4.5-66.79c-.86-36.61-7.69-90.33-35.42-138.35S237.66,105,206.36,85.92A355.86,355.86,0,0,0,146.35,56.46Z"/>
      </g>
      <g>
        <path class="cls-7" d="M291.1,195.88c54.06,93.63,49.68,197.36,49.68,197.36s-92-48.08-146.08-141.71S145,54.17,145,54.17,237,102.25,291.1,195.88Z"/>
        <path class="cls-2" d="M340.78,395a1.72,1.72,0,0,1-.79-.2c-.23-.12-23.49-12.37-53.05-35.92C259.67,337.1,221.27,301,193.22,252.39S153.08,152.48,147.89,118c-5.62-37.37-4.59-63.64-4.58-63.9a1.71,1.71,0,0,1,.85-1.42,1.75,1.75,0,0,1,1.66,0c.23.12,23.49,12.37,53,35.92,27.27,21.74,65.67,57.85,93.73,106.45s40.13,99.91,45.32,134.39c5.63,37.37,4.6,63.64,4.59,63.9a1.72,1.72,0,0,1-1.72,1.65ZM146.68,57.05c-.18,17.17,1.24,110,49.51,193.62s128,131.26,142.94,139.69c.18-17.17-1.24-110-49.52-193.62S161.65,65.48,146.68,57.05Z"/>
      </g>
      <g>
        <path class="cls-8" d="M271.54,207.17c54.06,93.63,69.24,186.07,69.24,186.07s-72.46-59.37-126.52-153S145,54.17,145,54.17,217.48,113.54,271.54,207.17Z"/>
        <path class="cls-2" d="M340.78,395a1.75,1.75,0,0,1-1.08-.39c-.73-.6-73.33-60.64-126.93-153.47S143.48,55.38,143.33,54.45a1.72,1.72,0,0,1,.83-1.77,1.74,1.74,0,0,1,2,.16c.73.6,73.32,60.64,126.92,153.47S342.33,392,342.48,393a1.72,1.72,0,0,1-1.7,2ZM147.6,58.64c3.94,20,21.77,100.41,68.15,180.74s107.07,136,122.46,149.39c-3.94-20-21.77-100.41-68.15-180.74S163,72.07,147.6,58.64Z"/>
      </g>
      <g>
        <path class="cls-8" d="M252,218.47c54.06,93.64,88.82,174.77,88.82,174.77s-52.88-70.67-106.94-164.3S145,54.17,145,54.17,197.91,124.84,252,218.47Z"/>
        <path class="cls-2" d="M340.79,395a1.73,1.73,0,0,1-1.38-.69c-.53-.71-53.56-71.83-107-164.48A1861.17,1861.17,0,0,1,143.44,54.85a1.72,1.72,0,0,1,3-1.71c.53.71,53.56,71.83,107,164.48S342,391.75,342.36,392.56a1.71,1.71,0,0,1-.72,2.17A1.75,1.75,0,0,1,340.79,395ZM153.23,68.38c12.56,27.69,42.19,90.58,82.1,159.7S314.88,354.3,332.58,379c-12.57-27.68-42.2-90.57-82.11-159.69h0C210.57,150.21,170.92,93.11,153.23,68.38Z"/>
      </g>
    </g>
    <g>
      <g>
        <path class="cls-9" d="M210,228.23c93.64,54.06,130.78,165,130.78,165s-114.66,23.3-208.28-30.76-130.78-165-130.78-165S116.37,174.18,210,228.23Z"/>
        <path class="cls-2" d="M280.41,400q-4.25,0-8.7-.1c-37-.85-91.39-7.77-140.07-35.88S49.78,292.25,30.53,260.6C9.68,226.34.18,198.3.09,198a1.68,1.68,0,0,1,.14-1.4,1.72,1.72,0,0,1,1.15-.83c.28,0,29.32-5.84,69.41-4.92,37,.85,91.39,7.77,140.07,35.88S292.72,298.47,312,330.11c20.85,34.27,30.35,62.3,30.44,62.58a1.71,1.71,0,0,1-1.28,2.23C340.86,395,315.94,400,280.41,400ZM4,198.8a356.08,356.08,0,0,0,29.5,60.09c19,31.28,51.82,74.38,99.84,102.11s101.74,34.56,138.35,35.41a356.46,356.46,0,0,0,66.79-4.49,356.41,356.41,0,0,0-29.5-60.1c-19-31.27-51.82-74.37-99.85-102.1h0C161.12,202,107.41,195.16,70.8,194.3A357.29,357.29,0,0,0,4,198.8Z"/>
      </g>
      <g>
        <path class="cls-10" d="M199.08,247.16c93.63,54.06,141.7,146.08,141.7,146.08s-103.73,4.38-197.36-49.68S1.72,197.48,1.72,197.48,105.44,193.1,199.08,247.16Z"/>
        <path class="cls-2" d="M335.25,395A403.14,403.14,0,0,1,277,390.37c-34.49-5.19-85.8-17.27-134.4-45.33S57.85,278.59,36.12,251.32C12.56,221.77.32,198.51.2,198.27a1.7,1.7,0,0,1,0-1.65,1.73,1.73,0,0,1,1.42-.86c.25,0,26.52-1,63.89,4.59,34.49,5.19,85.8,17.26,134.4,45.32s84.71,66.46,106.45,93.73c23.55,29.55,35.8,52.81,35.92,53a1.73,1.73,0,0,1-1.45,2.52C340.79,395,338.82,395,335.25,395ZM4.59,199.14c8.43,15,56.08,94.66,139.69,142.93s176.46,49.7,193.63,49.51c-8.43-15-56.08-94.66-139.69-142.93h0C114.57,200.36,21.8,199,4.59,199.14Z"/>
      </g>
      <g>
        <path class="cls-10" d="M187.78,266.72c93.64,54.06,153,126.52,153,126.52S248.34,378.06,154.71,324s-153-126.52-153-126.52S94.16,212.66,187.78,266.72Z"/>
        <path class="cls-2" d="M340.79,395a1.27,1.27,0,0,1-.28,0c-.93-.15-93.83-15.85-186.66-69.44S1,199.29.39,198.57A1.72,1.72,0,0,1,2,195.78c.92.16,93.82,15.86,186.64,69.45S341.52,391.42,342.11,392.15a1.7,1.7,0,0,1,.16,2A1.73,1.73,0,0,1,340.79,395ZM6.18,200.06c13.43,15.39,69.06,76.07,149.39,122.45s160.71,64.22,180.75,68.15c-13.43-15.39-69.06-76.07-149.39-122.45h0C106.59,221.82,26.23,204,6.18,200.06Z"/>
      </g>
      <g>
        <path class="cls-10" d="M176.48,286.3c93.63,54.06,164.3,106.94,164.3,106.94S259.65,358.48,166,304.42,1.72,197.48,1.72,197.48,82.85,232.24,176.48,286.3Z"/>
        <path class="cls-2" d="M340.78,395a1.79,1.79,0,0,1-.67-.14,1863.23,1863.23,0,0,1-175-88.91C72.51,252.42,1.4,199.38.69,198.85a1.71,1.71,0,0,1,1.7-2.95c.82.35,82.3,35.42,175,88.91S341.11,391.33,341.81,391.86a1.72,1.72,0,0,1-1,3.1ZM15.93,205.68c24.72,17.7,81.83,57.34,151,97.25s132,69.54,159.69,82.1c-24.72-17.69-81.83-57.34-150.95-97.24S43.61,218.25,15.93,205.68Z"/>
      </g>
    </g>
    <g>
      <g>
        <path class="cls-11" d="M549.07,362.48c-93.63,54.06-208.29,30.76-208.29,30.76s37.15-110.95,130.78-165,208.29-30.75,208.29-30.75S642.7,308.43,549.07,362.48Z"/>
        <path class="cls-2" d="M401.15,400c-35.53,0-60.44-5-60.71-5a1.71,1.71,0,0,1-1.28-2.23c.09-.28,9.58-28.31,30.43-62.58C388.85,298.47,422,254.85,470.7,226.75s103.05-35,140.08-35.88c40.1-.93,69.12,4.87,69.41,4.92a1.72,1.72,0,0,1,1.15.83,1.68,1.68,0,0,1,.14,1.4c-.09.28-9.59,28.32-30.44,62.58C631.78,292.25,598.61,335.87,549.93,364h0c-48.68,28.11-103,35-140.07,35.88Q405.41,400,401.15,400Zm-58.07-8a355.54,355.54,0,0,0,66.79,4.49c36.6-.85,90.32-7.69,138.34-35.41h0c48-27.75,80.85-70.88,99.89-102.18a356.19,356.19,0,0,0,29.46-60,356.28,356.28,0,0,0-66.79-4.5c-36.61.86-90.33,7.7-138.35,35.42s-80.8,70.83-99.84,102.1A356.41,356.41,0,0,0,343.08,391.92Z"/>
      </g>
      <g>
        <path class="cls-10" d="M538.14,343.56c-93.62,54.06-197.36,49.68-197.36,49.68s48.08-92,141.71-146.08,197.36-49.68,197.36-49.68S631.77,289.5,538.14,343.56Z"/>
        <path class="cls-2" d="M346.32,395c-3.57,0-5.54-.07-5.61-.07a1.73,1.73,0,0,1-1.45-2.52c.12-.23,12.37-23.49,35.92-53,21.74-27.27,57.85-65.67,106.45-93.73s99.91-40.13,134.4-45.32c37.37-5.62,63.63-4.6,63.89-4.59a1.74,1.74,0,0,1,1.42.86,1.7,1.7,0,0,1,0,1.65c-.12.24-12.36,23.5-35.92,53C623.71,278.59,587.6,317,539,345h0c-48.6,28.06-99.9,40.14-134.39,45.33A403.14,403.14,0,0,1,346.32,395Zm-2.66-3.45c17.17.18,110-1.24,193.62-49.51l.86,1.49-.86-1.49c83.64-48.29,131.27-128,139.7-142.93-17.2-.18-110,1.23-193.63,49.51S352.09,376.61,343.66,391.58Z"/>
      </g>
      <g>
        <path class="cls-12" d="M526.85,324c-93.63,54.06-186.07,69.24-186.07,69.24s59.37-72.46,153-126.52,186.07-69.24,186.07-69.24S620.48,269.94,526.85,324Z"/>
        <path class="cls-2" d="M340.78,395a1.73,1.73,0,0,1-1.48-.86,1.7,1.7,0,0,1,.16-2c.59-.73,60.64-73.33,153.46-126.92s185.72-69.29,186.65-69.45a1.72,1.72,0,0,1,1.61,2.79c-.6.72-60.64,73.32-153.47,126.92h0C434.88,379.08,342,394.78,341.06,394.93A1.27,1.27,0,0,1,340.78,395Zm334.61-194.9c-20,3.93-100.42,21.76-180.75,68.15s-136,107.06-149.39,122.45c20-3.93,100.41-21.77,180.74-68.15h0C606.33,276.13,662,215.45,675.39,200.06Z"/>
      </g>
      <g>
        <path class="cls-13" d="M515.55,304.42c-93.63,54.06-174.77,88.82-174.77,88.82s70.68-52.88,164.31-106.94,174.76-88.82,174.76-88.82S609.18,250.36,515.55,304.42Z"/>
        <path class="cls-2" d="M340.79,395a1.72,1.72,0,0,1-1-3.1c.7-.53,71.82-53.56,164.47-107A1863.82,1863.82,0,0,1,679.17,195.9a1.72,1.72,0,0,1,1.71,2.95c-.71.53-71.82,53.57-164.47,107.06h0a1863.23,1863.23,0,0,1-174.95,88.91A1.79,1.79,0,0,1,340.79,395ZM665.64,205.68c-27.69,12.57-90.57,42.2-159.7,82.11S379.72,367.34,355,385c27.68-12.56,90.57-42.19,159.69-82.1h0C583.81,263,640.92,223.38,665.64,205.68Z"/>
      </g>
    </g>
    <g>
      <g>
        <path class="cls-14" d="M505.79,262.46c-54.06,93.63-165,130.78-165,130.78S317.48,278.58,371.54,185s165-130.78,165-130.78S559.85,168.83,505.79,262.46Z"/>
        <path class="cls-2" d="M340.78,395a1.72,1.72,0,0,1-.85-.23,1.74,1.74,0,0,1-.83-1.15c-.06-.29-5.85-29.32-4.93-69.41.86-37,7.77-91.4,35.88-140.08S441.78,102.24,473.42,83c34.26-20.85,62.3-30.34,62.58-30.44a1.76,1.76,0,0,1,1.4.14,1.74,1.74,0,0,1,.83,1.15c0,.29,5.85,29.32,4.92,69.41-.85,37-7.77,91.4-35.87,140.08s-71.73,81.85-103.37,101.11c-34.26,20.85-62.3,30.34-62.58,30.44A1.71,1.71,0,0,1,340.78,395ZM535.22,56.46A356.47,356.47,0,0,0,475.13,86C443.85,105,400.75,137.79,373,185.81s-34.58,101.8-35.42,138.44a356,356,0,0,0,4.5,66.7,356.47,356.47,0,0,0,60.09-29.5c31.27-19.05,74.37-51.83,102.1-99.85l1.49.86-1.49-.86c27.74-48.05,34.58-101.8,35.42-138.43A356.07,356.07,0,0,0,535.22,56.46Z"/>
      </g>
      <g>
        <path class="cls-15" d="M486.86,251.53C432.8,345.16,340.78,393.24,340.78,393.24s-4.37-103.73,49.68-197.36S536.54,54.17,536.54,54.17,540.92,157.9,486.86,251.53Z"/>
        <path class="cls-2" d="M340.78,395a1.72,1.72,0,0,1-1.71-1.65c0-.26-1-26.53,4.58-63.9C348.84,294.93,360.92,243.62,389,195s66.45-84.71,93.72-106.45c29.55-23.55,52.82-35.8,53.05-35.92a1.73,1.73,0,0,1,1.65,0,1.74,1.74,0,0,1,.86,1.42c0,.26,1,26.53-4.59,63.9-5.19,34.48-17.26,85.79-45.32,134.39l-1.49-.86,1.49.86c-28.06,48.6-66.46,84.71-93.73,106.45-29.55,23.55-52.81,35.8-53,35.92A1.72,1.72,0,0,1,340.78,395ZM534.88,57.05c-15,8.43-94.65,56.08-142.93,139.69s-49.69,176.45-49.51,193.62c15-8.43,94.66-56.08,142.94-139.69S535.06,74.22,534.88,57.05Z"/>
      </g>
      <g>
        <path class="cls-16" d="M467.3,240.24c-54.05,93.63-126.52,153-126.52,153S356,300.8,410,207.17s126.52-153,126.52-153S521.36,146.61,467.3,240.24Z"/>
        <path class="cls-2" d="M340.78,395a1.72,1.72,0,0,1-1.69-2c.15-.93,15.85-93.82,69.45-186.65S534.73,53.44,535.45,52.84a1.72,1.72,0,0,1,2.79,1.61c-.15.93-15.85,93.82-69.45,186.65l-1.49-.86,1.49.86C415.2,333.93,342.6,394,341.87,394.57A1.75,1.75,0,0,1,340.78,395ZM534,58.64C518.57,72.07,457.89,127.69,411.51,208s-64.22,160.71-68.15,180.74c15.39-13.43,76.07-69,122.46-149.39S530,78.67,534,58.64Z"/>
      </g>
      <g>
        <path class="cls-16" d="M447.72,228.94c-54.06,93.63-106.94,164.3-106.94,164.3s34.77-81.13,88.82-174.77S536.54,54.17,536.54,54.17,501.78,135.3,447.72,228.94Z"/>
        <path class="cls-2" d="M340.78,395a1.72,1.72,0,0,1-1.57-2.4c.34-.81,35.42-82.3,88.91-174.94s106.52-163.77,107-164.48a1.72,1.72,0,0,1,3,1.71,1862.42,1862.42,0,0,1-88.91,174.94c-53.49,92.65-106.52,163.77-107,164.48A1.73,1.73,0,0,1,340.78,395ZM528.34,68.38c-17.7,24.73-57.34,81.83-97.25,151S361.55,351.34,349,379c17.69-24.72,57.34-81.82,97.24-150.94S515.77,96.07,528.34,68.38Z"/>
      </g>
    </g>
  </g>
</svg>
