<svg 
 xmlns="http://www.w3.org/2000/svg"
 xmlns:xlink="http://www.w3.org/1999/xlink"
 width="NaN%" height="NaN%">
<path fill-rule="evenodd"  fill="rgb(63, 25, 142)"
 d="M620.989,176.580 L620.989,181.868 C620.989,207.795 597.654,226.945 568.275,226.945 C538.896,226.945 515.555,207.795 515.555,181.868 L515.555,106.645 C515.555,80.713 538.896,61.969 568.275,61.969 C597.654,61.969 620.989,80.713 620.989,106.645 L620.989,156.824 L547.035,156.824 L547.035,181.868 C547.035,193.038 556.079,201.012 568.275,201.012 C580.478,201.012 589.516,193.038 589.516,181.868 L589.516,176.580 L620.989,176.580 ZM589.516,128.079 L589.516,108.248 C589.516,97.082 580.478,89.104 568.275,89.104 C556.079,89.104 547.035,97.082 547.035,108.248 L547.035,128.079 L589.516,128.079 ZM479.433,109.768 L479.433,222.958 L446.332,222.958 L446.332,109.768 C446.332,77.805 462.161,61.815 493.820,61.815 L503.599,61.815 L503.599,94.287 L493.710,94.287 C484.191,94.287 479.433,99.454 479.433,109.768 ZM400.912,37.563 C390.748,37.563 382.514,29.370 382.514,19.256 C382.514,9.146 390.748,0.950 400.912,0.950 C411.068,0.950 419.309,9.146 419.309,19.256 C419.309,29.370 411.068,37.563 400.912,37.563 ZM339.964,37.563 C329.807,37.563 321.567,29.370 321.567,19.256 C321.567,9.146 329.807,0.950 339.964,0.950 C350.128,0.950 358.362,9.146 358.362,19.256 C358.362,29.370 350.128,37.563 339.964,37.563 ZM324.890,64.001 L357.751,64.001 L357.751,179.941 C357.751,211.276 341.990,226.952 310.486,226.952 C297.641,226.952 287.415,224.328 279.834,219.080 C272.170,224.328 261.910,226.952 249.061,226.952 C217.637,226.952 201.917,211.276 201.917,179.941 L201.917,64.001 L234.781,64.001 L234.781,179.941 C234.781,190.058 239.498,195.112 248.941,195.112 L249.174,195.112 C257.920,195.044 262.648,190.745 263.346,182.224 L263.346,64.001 L296.326,64.001 L296.326,182.224 C297.019,190.817 301.696,195.112 310.366,195.112 L310.607,195.112 C320.132,195.044 324.890,189.983 324.890,179.941 L324.890,64.001 ZM279.024,37.563 C268.860,37.563 260.626,29.370 260.626,19.256 C260.626,9.146 268.860,0.950 279.024,0.950 C289.184,0.950 297.418,9.146 297.418,19.256 C297.418,29.370 289.184,37.563 279.024,37.563 ZM218.080,37.563 C207.919,37.563 199.685,29.370 199.685,19.256 C199.685,9.146 207.919,0.950 218.080,0.950 C228.240,0.950 236.477,9.146 236.477,19.256 C236.477,29.370 228.240,37.563 218.080,37.563 ZM125.333,226.945 C95.951,226.945 72.612,207.795 72.612,181.868 L72.612,106.645 C72.612,80.713 95.951,61.969 125.333,61.969 C154.704,61.969 178.046,80.713 178.046,106.645 L178.046,156.824 L104.089,156.824 L104.089,181.868 C104.089,193.038 113.129,201.012 125.333,201.012 C137.532,201.012 146.570,193.038 146.570,181.868 L146.570,176.580 L178.046,176.580 L178.046,181.868 C178.046,207.795 154.704,226.945 125.333,226.945 ZM146.570,128.079 L146.570,108.248 C146.570,97.082 137.532,89.104 125.333,89.104 C113.129,89.104 104.089,97.082 104.089,108.248 L104.089,128.079 L146.570,128.079 ZM34.063,109.768 L34.063,222.958 L0.963,222.958 L0.963,109.768 C0.963,77.805 16.791,61.815 48.450,61.815 L58.225,61.815 L58.225,94.287 L48.337,94.287 C38.821,94.287 34.063,99.454 34.063,109.768 ZM417.524,222.958 L384.822,222.958 L384.822,64.005 L417.524,64.005 L417.524,222.958 Z"/>
</svg>