<svg xmlns="http://www.w3.org/2000/svg" width="134" height="49" viewBox="0 0 134 49">
  <defs>
    <style>
      .cls-1 {
        fill: #fff;
        fill-rule: evenodd;
      }
    </style>
  </defs>
  <path id="Фигура_1" data-name="Фигура 1" class="cls-1" d="M953.089,64.927a3.969,3.969,0,1,0-3.976-3.969,3.971,3.971,0,0,0,3.976,3.969m-13.172,0a3.969,3.969,0,1,0-3.975-3.969,3.972,3.972,0,0,0,3.975,3.969m26.343,0a3.969,3.969,0,1,0-3.976-3.969,3.972,3.972,0,0,0,3.976,3.969m13.173,0a3.969,3.969,0,1,0-3.977-3.969,3.973,3.973,0,0,0,3.977,3.969M949.7,96.291a2.741,2.741,0,0,1-3.062,2.794h-0.051q-3.061,0-3.06-3.289V70.659h-7.1V95.8q0,10.192,10.189,10.192a11.564,11.564,0,0,0,6.651-1.706,11.44,11.44,0,0,0,6.625,1.706q10.213,0,10.215-10.192V70.659H963V95.8q0,3.266-3.087,3.289h-0.052a2.711,2.711,0,0,1-3.035-2.794V70.659H949.7V96.291Zm26.255,8.832h7.068V70.66h-7.068v34.463ZM915.28,84.552v-4.3c0-2.421,1.954-4.151,4.592-4.151s4.59,1.73,4.59,4.151v4.3H915.28Zm9.182,10.516v1.147c0,2.422-1.954,4.151-4.59,4.151s-4.592-1.729-4.592-4.151v-5.43h15.985V79.905c0-5.623-5.045-9.687-11.393-9.687s-11.395,4.064-11.395,9.687V96.214c0,5.622,5.045,9.774,11.395,9.774s11.393-4.152,11.393-9.774V95.068h-6.8Zm86.548-10.516v-4.3c0-2.421,1.96-4.151,4.59-4.151s4.6,1.73,4.6,4.151v4.3h-9.19Zm9.19,10.516v1.147c0,2.422-1.96,4.151-4.6,4.151s-4.59-1.729-4.59-4.151v-5.43H1027V79.905c0-5.623-5.05-9.687-11.4-9.687s-11.39,4.064-11.39,9.687V96.214c0,5.622,5.04,9.774,11.39,9.774s11.4-4.152,11.4-9.774V95.068h-6.8ZM892.992,105.123h7.154V80.582q0-3.354,3.085-3.356h2.137V70.185h-2.113q-10.263,0-10.263,10.4v24.541Zm96.257,0H996.4V80.582q0-3.354,3.086-3.356h2.141V70.185h-2.117q-10.265,0-10.264,10.4v24.541Z" transform="translate(-893 -57)"/>
</svg>
